<svg width="170" height="187" viewBox="0 0 170 187" fill="none" xmlns="http://www.w3.org/2000/svg">
<g clip-path="url(#clip0_101_1310)">
<path d="M77.6655 131.368C77.6226 131.308 77.5453 131.248 77.5539 131.197C77.5625 131.086 77.5968 130.967 77.6398 130.864C77.8373 130.386 78.0434 129.917 78.241 129.439C78.3354 129.209 78.49 129.072 78.7133 128.961C84.3559 126.112 90.239 123.833 96.1393 121.581C101.816 119.414 107.545 117.374 113.351 115.565C114.802 115.113 116.262 114.712 117.722 114.303C117.86 114.26 118.014 114.294 118.16 114.285C118.126 114.43 118.109 114.584 118.04 114.712C117.808 115.156 117.542 115.591 117.301 116.035C117.181 116.256 117.009 116.384 116.769 116.453C110.817 118.099 105.028 120.233 99.2483 122.374C93.3996 124.542 87.5938 126.811 81.9082 129.362C80.62 129.943 79.3575 130.583 78.0864 131.197C77.9575 131.248 77.8287 131.299 77.6655 131.368Z" fill="#2A686F"/>
<path d="M12.3759 137.648C12.5648 136.59 12.7194 135.625 12.9084 134.67C13.063 133.868 13.4237 133.134 13.8016 132.409C13.8274 132.366 13.8531 132.323 13.8875 132.281C14.5058 131.334 15.3905 131.24 16.1892 132.05C16.3953 132.264 16.5671 132.511 16.7474 132.75C16.9536 133.023 16.9793 133.33 16.8333 133.629C16.6615 133.962 16.464 134.277 16.2407 134.576C16.0432 134.832 15.8714 134.815 15.6825 134.55C15.5279 134.346 15.4076 134.107 15.2445 133.91C15.1242 133.765 14.9696 133.629 14.8064 133.535C14.4114 133.313 14.0421 133.424 13.8875 133.842C13.7672 134.166 13.6985 134.508 13.647 134.849C13.4581 135.992 13.3035 137.144 13.0973 138.288C13.0114 138.783 12.8483 139.26 12.6851 139.738C12.625 139.917 12.6679 139.96 12.8225 140.045C13.7157 140.54 14.4973 141.18 15.1586 141.948C15.253 142.059 15.3046 142.264 15.2788 142.409C15.2187 142.776 15.1242 143.143 15.0211 143.501C14.9353 143.8 14.858 143.834 14.5402 143.834C14.1365 143.825 13.7415 143.791 13.3378 143.825C12.5563 143.894 11.8606 144.184 11.225 144.644C10.8557 144.909 10.7183 145.25 10.7956 145.685C10.8901 146.231 11.0103 146.778 11.0962 147.324C11.4569 149.551 11.8262 151.778 12.1698 154.005C12.2814 154.755 12.3759 155.515 12.3845 156.274C12.3931 156.914 12.2557 157.554 12.1784 158.194C12.1784 158.22 12.1784 158.254 12.1612 158.271C12.1011 158.356 12.0324 158.442 11.9637 158.535C11.9121 158.442 11.8348 158.348 11.8177 158.254C11.7575 157.742 11.7404 157.221 11.6802 156.709C11.4913 155.302 11.3109 153.894 11.079 152.503C10.787 150.711 10.4349 148.928 10.1343 147.136C9.94537 146.027 10.1515 144.952 10.538 143.911C10.8042 143.202 11.3367 142.75 12.041 142.494C12.29 142.4 12.5391 142.306 12.8654 142.178C12.6507 142.05 12.5305 141.957 12.3931 141.897C11.9379 141.701 11.706 141.777 11.4655 142.221C11.4398 142.264 11.4312 142.324 11.3968 142.358C11.3109 142.451 11.2165 142.537 11.122 142.631C11.0962 142.494 11.0447 142.358 11.0533 142.23C11.1306 141.564 11.3023 140.907 11.7232 140.395C12.0238 140.028 11.9551 139.755 11.8434 139.405C11.414 138.091 10.8042 136.88 9.86807 135.839C9.82513 135.788 9.78219 135.745 9.73066 135.702C9.71348 135.685 9.68772 135.685 9.63619 135.677C9.59324 135.898 9.55889 136.129 9.50736 136.351C9.13805 138.125 8.18474 139.465 6.51857 140.267C5.80573 140.608 5.09289 140.95 4.37146 141.283C4.25981 141.334 4.0451 141.359 3.99357 141.308C3.85615 141.137 4.01933 141.001 4.14816 140.89C5.09289 140.105 6.04621 139.329 6.98235 138.527C7.78967 137.835 8.40804 136.991 8.94911 136.095C9.15523 135.753 9.14664 135.753 8.81169 135.515C8.57122 135.344 8.32215 135.173 8.09885 134.977C7.83261 134.738 7.60931 134.439 7.66084 134.064C7.73814 133.467 7.84979 132.869 7.9872 132.281C8.0645 131.939 8.17615 131.922 8.44239 132.144C9.63618 133.16 10.7012 134.286 11.4655 135.651C11.7404 136.146 11.9379 136.683 12.1698 137.204C12.2299 137.323 12.2814 137.451 12.3759 137.648Z" fill="#2A686F"/>
<path d="M133.035 125.096C132.821 124.968 132.692 124.874 132.554 124.815C132.091 124.618 131.824 124.712 131.601 125.156C131.549 125.258 131.507 125.369 131.446 125.463C131.421 125.506 131.343 125.523 131.292 125.557C131.257 125.506 131.215 125.455 131.206 125.395C131.197 125.309 131.206 125.216 131.223 125.13C131.326 124.388 131.567 123.705 132.022 123.108C132.065 123.057 132.073 122.946 132.048 122.869C131.549 121.359 130.837 119.968 129.686 118.825C129.548 118.688 129.437 118.569 129.222 118.705C129.171 118.739 129.042 118.722 128.973 118.68C128.595 118.458 128.209 118.236 127.856 117.971C127.461 117.681 127.298 117.289 127.401 116.777C127.47 116.461 127.461 116.137 127.504 115.813C127.522 115.633 127.547 115.454 127.599 115.284C127.693 114.917 127.771 114.883 128.054 115.122C128.552 115.54 129.05 115.949 129.523 116.393C130.631 117.434 131.498 118.646 132.073 120.053C132.125 120.19 132.202 120.318 132.314 120.531C132.383 119.806 132.451 119.183 132.494 118.56C132.572 117.323 132.906 116.145 133.456 115.036C134.014 113.901 134.933 113.739 135.818 114.627C136.737 115.548 136.72 115.71 136.196 116.709C136.11 116.871 136.033 117.033 135.921 117.169C135.741 117.383 135.595 117.374 135.414 117.152C135.294 116.999 135.2 116.828 135.071 116.683C134.916 116.512 134.762 116.325 134.573 116.197C134.126 115.907 133.679 116.077 133.551 116.589C133.465 116.948 133.405 117.323 133.37 117.698C133.284 118.509 133.25 119.32 133.147 120.122C133.044 120.941 132.889 121.751 132.718 122.553C132.675 122.784 132.692 122.886 132.924 122.937C133.01 122.954 133.095 122.997 133.173 123.04C133.954 123.535 134.684 124.089 135.294 124.789C135.449 124.968 135.517 125.147 135.44 125.395C135.354 125.676 135.303 125.975 135.225 126.257C135.114 126.675 135.062 126.709 134.633 126.692C134.023 126.675 133.405 126.649 132.821 126.862C132.365 127.033 131.919 127.246 131.481 127.477C131.026 127.716 130.862 128.1 130.957 128.612C131.137 129.576 131.283 130.54 131.472 131.504C131.807 133.236 132.159 134.977 132.116 136.752C132.108 137.298 131.962 137.844 131.876 138.39C131.867 138.441 131.85 138.492 131.816 138.535C131.773 138.578 131.713 138.629 131.67 138.62C131.627 138.612 131.567 138.535 131.558 138.484C131.532 138.305 131.515 138.125 131.507 137.946C131.438 136.112 131.086 134.311 130.751 132.511C130.562 131.496 130.347 130.489 130.244 129.465C130.158 128.603 130.347 127.741 130.631 126.922C130.888 126.188 131.395 125.676 132.134 125.403C132.408 125.344 132.675 125.241 133.035 125.096Z" fill="#2A686F"/>
<path d="M39.8848 120.557C39.9277 120.062 39.9535 119.559 40.0222 119.064C40.1339 118.262 40.2197 117.451 40.4173 116.666C40.5719 116.077 40.8725 115.523 41.1215 114.951C41.1731 114.832 41.2589 114.729 41.3448 114.635C41.7828 114.14 42.2981 114.047 42.8822 114.371C43.3717 114.644 43.7324 115.053 44.0073 115.531C44.1017 115.693 44.1189 115.949 44.0588 116.12C43.93 116.495 43.7496 116.862 43.5435 117.204C43.3374 117.536 43.157 117.528 42.9165 117.221C42.7791 117.033 42.6589 116.828 42.4957 116.657C42.3583 116.512 42.1951 116.367 42.0147 116.274C41.5853 116.06 41.2074 116.222 41.1215 116.683C40.9841 117.451 40.881 118.236 40.8209 119.021C40.7179 120.267 40.6406 121.521 40.2713 122.724C40.2111 122.929 40.2455 123.023 40.4602 123.065C40.5805 123.091 40.7093 123.151 40.8123 123.219C41.551 123.705 42.2466 124.243 42.8392 124.9C42.9938 125.071 43.0539 125.25 43.0024 125.463C42.9251 125.804 42.8478 126.146 42.7533 126.478C42.6589 126.803 42.6073 126.837 42.2466 126.828C41.6197 126.811 41.0013 126.811 40.3915 126.99C39.8418 127.153 39.3265 127.383 38.8628 127.741C38.5622 127.972 38.4333 128.262 38.502 128.654C38.8026 130.267 39.1032 131.871 39.3609 133.484C39.5155 134.491 39.6271 135.506 39.6958 136.521C39.7388 137.187 39.6357 137.861 39.4296 138.509C39.3952 138.603 39.3094 138.689 39.2492 138.774C39.1977 138.672 39.1032 138.569 39.0947 138.467C39.0088 137.605 38.983 136.743 38.8542 135.89C38.6395 134.465 38.3646 133.049 38.107 131.624C38.0125 131.078 37.9009 130.531 37.8236 129.985C37.6776 129.021 37.8837 128.083 38.1585 127.17C38.4076 126.35 38.9658 125.804 39.7731 125.514C40.005 125.429 40.2283 125.344 40.4946 125.241C40.2884 124.934 39.9964 124.849 39.6873 124.84C39.3867 124.823 39.2578 125.036 39.1462 125.267C39.0947 125.386 39.0345 125.506 38.9744 125.608C38.9572 125.642 38.8799 125.668 38.8456 125.659C38.8112 125.651 38.7683 125.591 38.7683 125.548C38.7597 125.42 38.7511 125.292 38.7769 125.164C38.8885 124.482 39.1032 123.833 39.5241 123.279C39.61 123.159 39.6357 123.065 39.5842 122.929C39.0775 121.427 38.3732 120.053 37.2224 118.936C37.1021 118.816 37.0077 118.68 36.7929 118.816C36.7242 118.859 36.5782 118.842 36.5095 118.799C36.123 118.569 35.728 118.338 35.3673 118.065C35.0323 117.818 34.8863 117.468 34.9378 117.041C34.9894 116.581 35.0409 116.12 35.0924 115.659C35.101 115.557 35.1354 115.454 35.1611 115.361C35.2642 115.045 35.3157 115.028 35.5906 115.233C36.6555 116.06 37.6346 116.982 38.4505 118.074C38.9744 118.774 39.3351 119.559 39.6958 120.344C39.7302 120.42 39.7731 120.506 39.8161 120.582C39.8504 120.557 39.8676 120.557 39.8848 120.557Z" fill="#2A686F"/>
<path d="M108.017 127.255C107.931 127.511 107.854 127.707 107.802 127.895C107.39 129.414 106.505 130.617 105.269 131.564C104.539 132.119 103.809 132.69 103.01 133.142C102.297 133.552 101.507 133.834 100.734 134.141C99.2997 134.704 97.8483 135.233 96.414 135.779C96.2164 135.856 96.0361 135.958 95.8386 136.018C95.7613 136.044 95.6582 135.984 95.5637 135.958C95.5895 135.881 95.5981 135.762 95.6496 135.719C95.8557 135.566 96.0704 135.412 96.2937 135.293C97.479 134.661 98.6899 134.055 99.8665 133.407C102.22 132.119 104.384 130.566 106.291 128.671C106.643 128.322 106.926 127.886 107.235 127.494C107.356 127.34 107.33 127.221 107.158 127.11C106.918 126.956 106.686 126.794 106.462 126.615C105.982 126.231 105.724 125.77 105.896 125.13C106.024 124.635 106.076 124.115 106.205 123.62C106.299 123.253 106.402 123.236 106.677 123.475C108 124.61 109.202 125.864 110.018 127.417C110.31 127.972 110.525 128.578 110.774 129.158C110.8 129.226 110.834 129.294 110.894 129.439C111.014 128.688 111.126 128.023 111.212 127.349C111.375 126.163 111.71 125.028 112.294 123.978C112.466 123.671 112.681 123.364 112.938 123.117C113.385 122.707 113.883 122.681 114.415 122.972C114.974 123.27 115.352 123.757 115.626 124.294C115.729 124.49 115.712 124.823 115.618 125.036C115.455 125.412 115.214 125.753 114.965 126.077C114.768 126.333 114.596 126.299 114.398 126.043C114.261 125.856 114.149 125.651 114.012 125.463C113.909 125.318 113.788 125.173 113.642 125.062C113.239 124.738 112.612 124.67 112.406 125.429C112.251 125.984 112.174 126.564 112.088 127.136C111.89 128.432 111.77 129.746 111.375 131.009C111.272 131.342 111.16 131.675 111.023 131.991C110.971 132.119 110.843 132.298 110.74 132.315C110.533 132.34 110.551 132.101 110.516 131.965C110.233 130.83 109.795 129.764 109.194 128.757C108.884 128.236 108.524 127.741 108.017 127.255Z" fill="#2A686F"/>
<path d="M58.7364 134.183C58.6849 134.294 58.6419 134.38 58.599 134.456C58.3585 134.9 58.1009 135.335 57.8776 135.788C57.7315 136.078 57.5254 136.24 57.2248 136.342C55.2752 137.008 53.3171 137.665 51.3933 138.373C47.0561 139.977 42.7619 141.701 38.5621 143.646C37.9523 143.928 37.3597 144.243 36.7499 144.542C36.6211 144.602 36.4665 144.619 36.3291 144.653C36.3635 144.508 36.3806 144.354 36.4408 144.226C36.5696 143.928 36.7242 143.646 36.8702 143.356C37.437 142.264 37.1021 142.537 38.2186 142.033C40.546 140.984 42.8907 139.969 45.2525 138.996C48.8683 137.511 52.5184 136.103 56.22 134.815C56.9071 134.576 57.5941 134.363 58.2898 134.132C58.3843 134.098 58.4873 134.073 58.5904 134.073C58.6333 134.073 58.6763 134.141 58.7364 134.183Z" fill="#2A686F"/>
<path d="M24.52 128.663C24.1936 128.398 23.8243 128.467 23.4894 128.407C22.3729 128.211 21.2478 128.202 20.1141 128.245C19.4614 128.27 18.8258 128.347 18.2246 128.637C18.1559 128.671 18.0271 128.697 17.9842 128.663C17.9326 128.62 17.9412 128.501 17.9412 128.415C17.9412 128.356 17.967 128.287 18.0013 128.236C18.4995 127.434 18.9546 126.606 19.616 125.924C20.2172 125.301 20.9558 124.968 21.806 124.985C22.8796 125.002 23.9531 125.088 25.0267 125.173C25.7224 125.224 26.418 125.309 27.0793 125.574C27.5173 125.745 27.5946 125.847 27.4229 126.291C26.9934 127.417 26.2806 128.364 25.5678 129.32C24.6917 130.497 23.5151 131.154 22.1152 131.461C21.1533 131.675 20.1914 131.88 19.1951 131.845C19.1264 131.845 19.0577 131.863 19.0062 131.837C18.8945 131.794 18.8001 131.726 18.697 131.666C18.7743 131.589 18.843 131.487 18.9289 131.444C20.0883 130.932 21.2649 130.446 22.4158 129.926C22.9655 129.678 23.4979 129.371 24.0218 129.072C24.2022 128.961 24.3482 128.808 24.52 128.663Z" fill="#2A686F"/>
<path d="M55.1207 146.667C55.2238 145.992 55.3182 145.412 55.4041 144.832C55.5587 143.714 55.8937 142.648 56.4347 141.649C56.5464 141.445 56.6752 141.248 56.8384 141.086C57.3022 140.591 57.8862 140.523 58.453 140.898C58.891 141.18 59.1916 141.581 59.4493 142.025C59.5867 142.264 59.5609 142.537 59.4321 142.767C59.2689 143.074 59.08 143.373 58.8739 143.646C58.6591 143.919 58.5045 143.893 58.2984 143.595C58.1954 143.45 58.1095 143.288 57.9978 143.143C57.8776 142.989 57.7574 142.835 57.6028 142.716C57.1562 142.383 56.6838 142.511 56.5292 143.04C56.3746 143.586 56.2887 144.149 56.2114 144.704C56.0139 146.095 55.8679 147.494 55.3526 148.817C55.2925 148.962 55.2409 149.107 55.1636 149.235C55.0434 149.423 54.9146 149.405 54.8373 149.201C54.7857 149.056 54.7514 148.902 54.7084 148.757C54.3477 147.434 53.7723 146.223 52.9049 145.148C52.7932 145.011 52.6644 144.883 52.5184 144.713C52.4239 144.96 52.338 145.156 52.2693 145.361C51.9172 146.445 51.2473 147.289 50.3627 147.989C49.2118 148.894 47.9751 149.619 46.5666 150.062C45.2611 150.481 43.9729 150.958 42.676 151.411C42.6159 151.428 42.5558 151.453 42.4871 151.453C42.4441 151.453 42.3582 151.436 42.3497 151.411C42.3325 151.359 42.3411 151.266 42.3754 151.24C42.5042 151.129 42.6331 151.027 42.7791 150.95C43.2858 150.694 43.8011 150.446 44.3164 150.199C46.3519 149.235 48.3015 148.143 50.0449 146.709C50.6547 146.206 51.2731 145.711 51.7368 145.062C51.9516 144.764 51.9516 144.764 51.6595 144.559C51.4277 144.397 51.1872 144.235 50.9725 144.056C50.6032 143.74 50.4228 143.356 50.5516 142.852C50.6375 142.503 50.6719 142.144 50.732 141.786C50.7578 141.658 50.7921 141.538 50.8351 141.41C50.9553 141.078 51.0326 141.061 51.2988 141.282C51.5135 141.462 51.7283 141.658 51.9344 141.854C52.9049 142.776 53.7809 143.783 54.3907 144.977C54.614 145.412 54.7772 145.873 54.9747 146.325C55.0005 146.402 55.0434 146.487 55.1207 146.667Z" fill="#2A686F"/>
<path d="M108.481 136.581C108.532 136.675 108.575 136.718 108.593 136.777C108.747 137.545 109.091 138.236 109.391 138.953C109.606 139.448 109.821 139.951 109.932 140.48C110.13 141.402 110.001 142.306 109.589 143.16C109.074 144.218 107.871 144.627 106.686 144.167C106.059 143.919 105.578 143.501 105.234 142.929C105.149 142.784 105.08 142.639 104.977 142.434C104.917 142.571 104.882 142.673 104.839 142.767C104.582 143.39 104.29 143.996 103.774 144.457C103.053 145.114 102.203 145.293 101.275 145.037C100.356 144.789 99.755 143.987 99.6949 142.955C99.6606 142.349 99.7121 141.743 99.7121 141.137C99.7121 140.685 99.6949 140.242 99.7035 139.789C99.7035 139.576 99.7121 139.346 99.7808 139.149C99.8753 138.859 100.021 138.578 100.159 138.305C100.202 138.219 100.288 138.151 100.348 138.083C100.408 138.177 100.502 138.271 100.511 138.364C100.528 138.851 100.554 139.346 100.519 139.832C100.485 140.515 100.391 141.189 100.485 141.88C100.674 143.305 101.842 143.612 102.735 143.322C102.984 143.245 103.216 143.134 103.448 143.006C104.324 142.52 104.685 141.76 104.582 140.771C104.504 140.062 104.358 139.371 104.084 138.714C103.972 138.441 103.938 138.177 104.049 137.887C104.152 137.596 104.23 137.289 104.333 137.008C104.41 136.803 104.522 136.786 104.616 136.982C104.796 137.349 104.985 137.724 105.08 138.125C105.269 138.936 105.38 139.772 105.569 140.591C105.655 140.975 105.81 141.359 106.025 141.692C106.755 142.835 108.197 142.818 109.151 142.178C109.348 142.042 109.323 141.88 109.245 141.701C109.065 141.3 108.876 140.899 108.696 140.506C108.386 139.84 108.06 139.175 107.957 138.441C107.923 138.211 107.931 137.946 108 137.724C108.103 137.323 108.206 136.939 108.481 136.581Z" fill="#2A686F"/>
<path d="M51.7883 120.702C51.7969 121.879 51.5564 123.006 51.1699 124.115C50.8092 125.165 50.4485 126.214 50.1651 127.281C49.8903 128.33 49.8988 129.397 50.2939 130.438C50.4313 130.805 50.6374 131.129 50.9552 131.376C51.4791 131.794 52.149 131.718 52.5097 131.146C52.6987 130.839 52.7846 130.455 52.9048 130.105C52.9563 129.968 52.9649 129.832 53.025 129.704C53.0508 129.644 53.1539 129.576 53.2054 129.593C53.2741 129.61 53.36 129.687 53.3858 129.755C53.4201 129.832 53.4115 129.934 53.4029 130.02C53.3342 130.915 53.1796 131.786 52.7588 132.588C52.4926 133.091 52.1404 133.509 51.6423 133.799C51.0239 134.166 50.5 134.124 49.9675 133.637C49.2547 132.997 48.9627 132.153 48.851 131.231C48.6793 129.857 48.9627 128.535 49.3578 127.238C49.6154 126.385 49.8817 125.54 50.1908 124.704C50.9295 122.724 50.8178 120.762 50.1994 118.791C49.9074 117.861 49.5124 116.982 48.9541 116.18C48.7909 115.941 48.7394 115.702 48.851 115.454C49.0228 115.079 49.2118 114.712 49.4265 114.362C49.5982 114.089 49.7185 114.106 49.8817 114.362C50.8264 115.873 51.4534 117.494 51.6681 119.268C51.7196 119.746 51.7454 120.224 51.7883 120.702Z" fill="#2A686F"/>
<path d="M123.76 121.786C123.768 122.989 123.511 124.141 123.107 125.267C122.746 126.282 122.403 127.315 122.128 128.364C121.853 129.405 121.87 130.455 122.248 131.487C122.386 131.871 122.609 132.195 122.935 132.451C123.451 132.852 124.112 132.776 124.455 132.221C124.644 131.922 124.73 131.564 124.851 131.223C124.885 131.129 124.893 131.018 124.919 130.924C124.954 130.787 124.988 130.617 125.168 130.634C125.357 130.651 125.357 130.822 125.349 130.967C125.331 131.265 125.306 131.555 125.263 131.854C125.168 132.485 125.005 133.091 124.705 133.654C124.421 134.175 124.052 134.619 123.519 134.909C122.918 135.233 122.42 135.173 121.913 134.712C121.338 134.183 121.029 133.509 120.874 132.767C120.634 131.564 120.745 130.378 121.063 129.209C121.355 128.125 121.681 127.05 122.068 126.001C123.107 123.202 122.66 120.557 121.338 117.98C121.2 117.707 121.02 117.451 120.848 117.187C120.737 117.016 120.677 116.837 120.762 116.64C120.951 116.239 121.14 115.821 121.372 115.437C121.535 115.173 121.664 115.19 121.836 115.454C122.755 116.931 123.373 118.518 123.605 120.25C123.691 120.753 123.717 121.274 123.76 121.786Z" fill="#2A686F"/>
<path d="M143.445 122.477C143.41 122.417 143.35 122.366 143.35 122.306C143.35 122.229 143.393 122.161 143.427 122.093C143.668 121.606 143.908 121.12 144.149 120.634C144.26 120.403 144.424 120.241 144.664 120.139C147.232 119.047 149.774 117.903 152.359 116.879C154.764 115.924 157.22 115.096 159.66 114.217C159.806 114.166 159.969 114.183 160.132 114.174C160.08 114.311 160.055 114.465 159.986 114.593C159.78 114.985 159.548 115.352 159.368 115.753C159.222 116.086 158.964 116.222 158.646 116.333C156.886 116.948 155.116 117.553 153.373 118.21C150.083 119.448 146.828 120.77 143.694 122.366C143.616 122.4 143.548 122.434 143.445 122.477Z" fill="#2A686F"/>
<path d="M83.3939 120.728C83.6172 119.533 83.789 118.355 84.081 117.212C84.2613 116.495 84.5877 115.804 84.9398 115.147C85.5754 113.953 86.5802 113.842 87.525 114.797C87.7225 115.002 87.8857 115.241 88.0574 115.463C88.2979 115.77 88.3237 116.12 88.1605 116.444C87.9801 116.794 87.7568 117.135 87.5164 117.451C87.3188 117.707 87.1471 117.681 86.9581 117.425C86.7949 117.204 86.6747 116.965 86.5029 116.751C86.3655 116.589 86.2023 116.419 86.0134 116.325C85.6269 116.128 85.1803 116.171 85.0257 116.658C84.8969 117.059 84.811 117.477 84.7423 117.895C84.5276 119.175 84.3472 120.463 84.1067 121.743C84.0037 122.28 83.7804 122.801 83.6086 123.33C83.6 123.356 83.5914 123.381 83.5743 123.398C83.4712 123.501 83.3681 123.603 83.2651 123.705C83.205 123.586 83.1105 123.475 83.0761 123.347C82.7068 121.922 82.14 120.591 81.2554 119.396C81.0836 119.166 80.8947 118.961 80.7057 118.739C80.6027 118.611 80.491 118.543 80.3021 118.62C80.1904 118.663 80.0015 118.654 79.8984 118.586C79.5377 118.355 79.1856 118.108 78.8592 117.835C78.4469 117.494 78.2924 117.059 78.4212 116.521C78.5071 116.146 78.55 115.762 78.6187 115.378C78.6445 115.224 78.6874 115.079 78.7475 114.934C78.8764 114.61 78.9451 114.584 79.2113 114.814C80.1904 115.651 81.075 116.564 81.8394 117.605C82.5007 118.501 82.9215 119.507 83.3166 120.531C83.3424 120.6 83.3681 120.659 83.3939 120.728Z" fill="#2A686F"/>
<path d="M105.904 152.588C105.672 152.972 105.44 153.356 105.2 153.74C104.324 155.131 103.336 156.419 101.996 157.4C101 158.134 99.9009 158.646 98.6642 158.8C97.5477 158.945 96.4655 158.757 95.4091 158.416C94.2497 158.049 93.3221 157.315 92.532 156.428C91.8106 155.6 91.1321 154.73 90.4879 153.842C90.1101 153.313 89.6463 153.168 89.0794 153.305C88.7101 153.399 88.3322 153.535 88.0059 153.731C85.9189 154.977 84.4588 156.769 83.5227 158.979C82.8872 160.472 82.2774 161.982 81.6418 163.476C81.3241 164.235 80.8603 164.901 80.2591 165.472C79.2027 166.471 77.8715 166.59 76.6691 165.762C75.6728 165.08 74.9686 164.141 74.4361 163.075C73.5687 161.334 73.062 159.482 72.9589 157.546C72.8988 156.453 72.8472 155.353 72.873 154.26C72.8816 153.552 73.019 152.853 73.1221 152.153C73.1478 151.957 73.2509 151.76 73.354 151.59C73.3969 151.513 73.5515 151.479 73.6546 151.479C73.6889 151.479 73.7576 151.641 73.7576 151.726C73.7233 152.409 73.6889 153.092 73.6374 153.774C73.4828 155.882 73.6116 157.947 74.4619 159.926C74.9428 161.044 75.5784 162.051 76.5575 162.819C76.9525 163.134 77.3562 163.433 77.8887 163.51C78.6273 163.612 79.28 163.442 79.8211 162.921C80.3965 162.366 80.8517 161.718 81.1866 161.001C81.6934 159.883 82.1743 158.757 82.6467 157.622C83.454 155.685 84.4503 153.877 85.9189 152.349C86.8035 151.436 87.7568 150.591 88.9764 150.131C89.3629 149.986 89.7751 149.909 90.1788 149.841C90.5738 149.781 90.9431 149.909 91.2008 150.208C91.4928 150.549 91.7676 150.916 92.0081 151.291C92.7124 152.375 93.5369 153.348 94.6104 154.09C95.4091 154.644 96.268 155.071 97.2385 155.208C98.5182 155.387 99.7721 155.284 100.992 154.807C102.907 154.064 104.393 152.801 105.483 151.069C105.775 150.6 106.102 150.139 106.437 149.704C106.583 149.516 106.789 149.363 106.995 149.226C107.072 149.167 107.244 149.149 107.313 149.192C107.381 149.235 107.399 149.388 107.399 149.499C107.381 149.772 107.313 150.037 107.313 150.301C107.304 151.65 107.777 152.784 108.884 153.586C109.718 154.192 110.688 154.354 111.693 154.269C113.23 154.141 114.647 153.586 116.056 153.023C116.683 152.776 117.293 152.486 117.902 152.204C118.177 152.076 118.254 152.127 118.134 151.726C117.481 149.431 116.923 147.11 116.451 144.772C116.374 144.38 116.322 143.987 116.245 143.595C116.176 143.228 116.073 142.869 115.824 142.571C115.695 142.417 115.669 142.247 115.729 142.059C116.021 141.163 116.313 140.276 116.623 139.38C116.657 139.286 116.76 139.149 116.837 139.141C116.915 139.132 117.026 139.252 117.086 139.337C117.378 139.789 117.679 140.25 117.945 140.719C118.753 142.136 119.543 143.552 120.333 144.977C120.436 145.156 120.522 145.344 120.582 145.54C120.642 145.745 120.539 145.847 120.341 145.805C120.221 145.779 120.092 145.728 119.989 145.66C119.603 145.421 119.225 145.173 118.847 144.926C118.761 144.875 118.675 144.815 118.512 144.713C118.615 145.207 118.675 145.643 118.796 146.052C119.285 147.725 119.8 149.388 120.29 151.052C120.359 151.274 120.453 151.334 120.676 151.266C121.767 150.95 122.884 150.796 124.017 150.754C125.031 150.711 125.984 150.916 126.817 151.513C127.444 151.957 127.848 152.545 128.011 153.305C128.277 154.551 128.312 155.788 127.985 157.025C127.882 157.418 127.719 157.81 127.521 158.168C126.8 159.44 125.452 159.977 124.026 159.61C123.201 159.397 122.489 158.979 121.87 158.416C121.363 157.955 120.908 157.443 120.436 156.948C120.359 156.871 120.29 156.778 120.161 156.633C120.041 157.17 119.921 157.639 119.835 158.117C119.68 159.005 119.62 159.892 119.895 160.762C120.032 161.189 120.23 161.607 120.479 161.974C121.071 162.861 121.965 163.126 122.969 162.913C123.596 162.776 124.215 162.546 124.799 162.29C126.645 161.488 128.337 160.387 130.046 159.329C133.138 157.418 136.187 155.464 139.142 153.356C139.743 152.929 140.344 152.494 140.937 152.051C141.349 151.735 141.349 151.65 141.151 151.163C140.962 150.711 140.653 150.353 140.292 150.028C139.373 149.192 138.274 148.629 137.158 148.109C135.406 147.298 133.628 146.539 131.962 145.557C130.184 144.508 128.578 143.253 127.272 141.641C126.869 141.137 126.302 140.822 125.726 140.549C125.512 140.446 125.434 140.327 125.452 140.105C125.52 139.439 125.58 138.774 125.641 138.1C125.658 137.878 125.675 137.665 125.709 137.443C125.752 137.17 125.804 137.136 126.07 137.247C126.396 137.383 126.714 137.52 127.032 137.673C128.303 138.296 129.565 138.927 130.828 139.559C130.991 139.644 131.275 139.687 131.223 139.917C131.163 140.165 130.879 140.088 130.691 140.096C130.184 140.105 129.677 140.096 129.153 140.105C129.17 140.387 129.359 140.497 129.505 140.634C130.502 141.521 131.618 142.221 132.82 142.793C134.581 143.637 136.359 144.457 138.137 145.284C139.21 145.788 140.146 146.462 140.937 147.341C141.744 148.228 142.13 149.295 142.242 150.463C142.379 151.931 142.087 153.313 141.34 154.593C141.074 155.045 140.739 155.429 140.318 155.745C137.707 157.725 134.993 159.568 132.219 161.325C130.63 162.332 129.05 163.348 127.453 164.337C126.328 165.029 125.134 165.6 123.888 166.07C123.339 166.283 122.763 166.428 122.179 166.36C120.616 166.198 119.337 165.063 118.933 163.544C118.504 161.94 118.512 160.327 118.821 158.714C118.993 157.819 119.234 156.931 119.5 156.061C119.611 155.702 119.457 155.464 119.302 155.208C119.276 155.173 119.122 155.182 119.045 155.216C118.383 155.515 117.731 155.839 117.069 156.138C115.901 156.675 114.742 157.213 113.488 157.528C112.457 157.784 111.409 157.93 110.362 157.776C108.695 157.537 107.519 156.581 106.763 155.114C106.566 154.73 106.42 154.303 106.299 153.885C106.179 153.467 106.11 153.032 106.016 152.605C105.956 152.614 105.93 152.597 105.904 152.588ZM121.93 154.354C122.428 155.387 124.06 156.334 125.168 156.24C125.623 156.197 126.053 156.052 126.413 155.754C126.585 155.617 126.637 155.464 126.448 155.31C126.156 155.063 125.881 154.781 125.555 154.576C125.108 154.303 124.601 154.201 124.077 154.175C123.356 154.141 122.643 154.175 121.93 154.354Z" fill="#2A686F"/>
<path d="M143.436 132.426C143.582 131.845 143.797 131.351 144.192 130.907C146.777 127.98 149.826 125.565 152.918 123.21C155.614 121.154 158.346 119.132 161.231 117.332C162.562 116.504 163.911 115.702 165.371 115.105C165.869 114.9 166.402 114.738 166.934 114.661C167.913 114.516 168.798 114.772 169.433 115.591C169.785 116.035 169.897 116.564 169.923 117.11C169.992 118.21 169.691 119.251 169.33 120.284C168.858 121.615 168.111 122.818 167.467 124.064C166.805 125.361 166.161 126.666 165.543 127.989C165.294 128.509 165.156 129.081 164.95 129.627C164.864 129.857 164.778 130.088 164.667 130.301C164.598 130.429 164.469 130.617 164.383 130.608C164.169 130.583 164.237 130.361 164.254 130.224C164.323 129.627 164.375 129.021 164.503 128.424C164.881 126.606 165.714 124.977 166.616 123.373C167.217 122.306 167.81 121.231 168.454 120.181C168.858 119.524 168.755 118.577 167.707 118.134C167.209 117.92 166.694 117.963 166.178 118.065C165.276 118.253 164.478 118.688 163.67 119.106C161.455 120.258 159.393 121.658 157.409 123.159C154.627 125.258 151.861 127.383 149.113 129.525C147.576 130.719 146.176 132.067 144.853 133.492C144.389 133.996 144.381 134.013 144.999 134.32C146.236 134.943 147.49 135.54 148.726 136.163C149.122 136.359 149.491 136.598 149.877 136.811C149.955 136.854 150.049 136.905 150.092 136.974C150.169 137.093 150.204 137.238 150.264 137.366C150.126 137.417 149.98 137.52 149.843 137.503C149.276 137.443 148.709 137.349 148.142 137.272C147.954 137.247 147.773 137.23 147.584 137.204C147.567 137.238 147.558 137.264 147.541 137.298C147.636 137.392 147.73 137.485 147.833 137.571C150.204 139.576 152.797 141.274 155.494 142.801C156.585 143.424 157.701 144.013 158.689 144.789C159.849 145.702 160.879 146.735 161.575 148.049C162.082 148.996 162.382 150.003 162.468 151.069C162.511 151.607 162.554 152.153 162.537 152.691C162.52 153.194 162.459 153.689 162.365 154.184C162.262 154.755 161.978 155.242 161.583 155.677C160.287 157.145 158.706 158.237 156.98 159.141C155.821 159.747 154.661 160.353 153.399 160.728C152.437 161.018 151.458 161.172 150.444 161.112C148.744 161.01 147.361 160.285 146.287 158.971C145.368 157.844 144.862 156.522 144.501 155.139C144.106 153.604 143.831 152.042 143.634 150.464C143.35 148.134 143.058 145.805 142.792 143.475C142.534 141.257 142.302 139.038 142.053 136.828C141.701 133.74 141.332 130.659 140.799 127.596C140.301 124.763 139.76 121.939 138.936 119.183C138.798 118.714 138.609 118.262 138.463 117.792C138.412 117.63 138.377 117.434 138.42 117.272C138.661 116.35 138.927 115.437 139.193 114.516C139.21 114.465 139.21 114.413 139.245 114.371C139.331 114.251 139.434 114.149 139.528 114.038C139.606 114.149 139.709 114.251 139.752 114.379C140.55 116.47 141.143 118.62 141.589 120.804C142.027 122.937 142.371 125.088 142.706 127.238C142.964 128.868 143.135 130.506 143.35 132.144C143.393 132.255 143.419 132.34 143.436 132.426ZM144.08 137.281C144.054 137.306 144.029 137.323 144.003 137.349C144.003 137.4 143.994 137.451 144.003 137.503C144.114 138.441 144.218 139.371 144.329 140.31C144.578 142.4 144.836 144.482 145.094 146.573C145.334 148.544 145.635 150.506 146.055 152.443C146.287 153.51 146.605 154.534 147.138 155.489C147.687 156.479 148.52 157.102 149.611 157.409C150.667 157.699 151.715 157.631 152.772 157.418C154.283 157.102 155.692 156.522 157.057 155.813C158.646 154.986 160.098 153.979 161.309 152.656C161.609 152.324 161.669 152.008 161.489 151.607C161.214 151.001 160.879 150.438 160.45 149.935C159.72 149.064 158.844 148.356 157.89 147.742C156.198 146.641 154.481 145.566 152.78 144.474C150.899 143.271 149.053 142.025 147.421 140.489C146.614 139.73 145.849 138.91 145.059 138.134C144.759 137.827 144.406 137.562 144.08 137.281Z" fill="#2A686F"/>
<path d="M54.7858 157.076C54.5453 157.443 54.3306 157.759 54.1159 158.083C53.3429 159.269 52.3037 160.131 50.9725 160.626C49.0401 161.343 47.0905 160.583 46.2661 158.774C46.1458 158.51 46.0771 158.22 45.9569 157.87C45.8538 158.032 45.7679 158.16 45.6906 158.297C45.0465 159.491 44.1103 160.37 42.8307 160.856C40.7437 161.65 38.734 161.547 36.8789 160.208C35.9427 159.534 35.3158 158.604 34.8262 157.571C34.2937 156.453 33.9588 155.276 33.7441 154.073C33.4177 152.179 33.1257 150.284 32.8681 148.382C32.619 146.487 32.4386 144.593 32.2239 142.69C31.9749 140.489 31.7258 138.288 31.4595 136.078C31.2277 134.149 31.0044 132.212 30.7209 130.284C30.3001 127.374 29.7418 124.49 29.0719 121.632C28.7885 120.437 28.4622 119.26 28.0242 118.117C27.9211 117.852 27.9039 117.605 27.9898 117.323C28.2475 116.461 28.4708 115.582 28.737 114.721C28.7885 114.55 28.9174 114.294 29.0376 114.277C29.2781 114.243 29.2781 114.533 29.3382 114.704C30.1112 116.777 30.6694 118.91 31.1504 121.06C31.7086 123.577 32.0951 126.129 32.4215 128.688C32.6619 130.591 32.8938 132.503 33.1257 134.405C33.3576 136.317 33.5809 138.219 33.8042 140.131C33.9931 141.769 34.1735 143.407 34.3796 145.045C34.7317 147.895 35.0753 150.754 35.7881 153.544C35.9857 154.312 36.2863 155.037 36.6813 155.72C37.2568 156.752 38.15 157.392 39.3008 157.622C41.0099 157.964 42.6589 157.81 44.1962 156.931C45.1839 156.36 45.9225 155.54 46.4979 154.568C46.7041 154.209 46.9188 153.86 47.1507 153.518C47.2365 153.39 47.3482 153.271 47.477 153.203C47.7003 153.075 47.8893 153.203 47.8807 153.467C47.8807 153.527 47.8635 153.595 47.8377 153.655C47.812 153.715 47.7776 153.766 47.7433 153.825C46.9703 155.216 47.4427 156.573 48.9199 157.221C49.4781 157.469 50.0622 157.46 50.6462 157.375C52.1406 157.145 53.4031 156.488 54.2963 155.233C54.6656 154.721 55.0005 154.184 55.3441 153.655C55.6017 153.271 55.8594 152.878 56.117 152.494C56.1943 152.375 56.2974 152.273 56.409 152.187C56.4863 152.136 56.6151 152.093 56.6839 152.127C56.7526 152.153 56.8299 152.29 56.8213 152.366C56.7783 152.605 56.7182 152.836 56.6323 153.066C56.5379 153.313 56.3833 153.544 56.2888 153.8C55.9195 154.866 56.847 156.633 58.4445 156.701C59.7585 156.761 60.7634 156.283 61.502 155.208C62.0688 154.38 62.4124 153.441 62.7387 152.511C62.7988 152.358 62.8332 152.187 62.9277 152.051C62.9792 151.965 63.1166 151.889 63.2025 151.897C63.2884 151.906 63.3914 152.025 63.4344 152.119C63.4945 152.255 63.4859 152.426 63.5289 152.571C63.692 153.083 63.8037 153.629 64.0356 154.107C64.9545 155.984 66.9728 156.624 68.8451 155.668C69.0856 155.549 69.3003 155.378 69.5322 155.233C69.8156 155.054 69.8929 154.807 69.7984 154.5C69.5751 153.774 69.3776 153.04 69.1285 152.324C68.2353 149.764 67.3164 147.221 66.4318 144.661C66.1655 143.894 66.0023 143.091 65.7533 142.324C65.633 141.948 65.4355 141.598 65.238 141.248C65.1521 141.103 65.1177 140.984 65.1607 140.822C65.4183 139.934 65.6674 139.038 65.925 138.143C65.9508 138.066 66.0195 137.998 66.0625 137.929C66.1312 137.972 66.2085 138.023 66.2686 138.074C66.2943 138.1 66.3201 138.134 66.3373 138.168C67.2562 139.593 68.1752 141.01 69.0942 142.434C69.1715 142.562 69.3604 142.716 69.1801 142.878C69.0169 143.023 68.8623 142.853 68.7249 142.784C68.45 142.648 68.1924 142.494 67.9261 142.349C67.9004 142.366 67.8746 142.392 67.8489 142.409C67.8832 142.571 67.8918 142.733 67.9433 142.887C68.5273 144.551 69.1199 146.214 69.704 147.887C70.0389 148.851 70.3653 149.815 70.7002 150.771C71.2155 152.264 71.2069 153.791 70.8892 155.31C70.7603 155.942 70.6143 156.581 70.3653 157.17C69.7641 158.587 68.7249 159.517 67.1102 159.619C65.7533 159.704 64.6024 159.21 63.6147 158.297C63.1252 157.844 62.7645 157.29 62.4811 156.692C62.4209 156.564 62.3608 156.436 62.2664 156.249C62.1719 156.462 62.0946 156.616 62.0259 156.778C61.6652 157.58 61.2787 158.373 60.6775 159.03C59.707 160.088 58.5046 160.438 57.1133 160.157C56.5121 160.029 56.014 159.704 55.6447 159.209C55.241 158.672 54.9833 158.075 54.8459 157.418C54.8545 157.298 54.8287 157.213 54.7858 157.076Z" fill="#2A686F"/>
<path d="M29.1493 146.257C28.3935 145.097 27.4659 144.115 26.1948 143.527C24.898 142.929 23.6698 143.057 22.6049 144.004C21.0933 145.361 20.3547 147.068 20.4921 149.107C20.5264 149.653 20.681 150.173 20.9902 150.634C21.5828 151.539 22.4846 151.906 23.5238 151.914C24.2195 151.914 24.9152 151.812 25.6108 151.735C26.358 151.65 27.1052 151.522 27.861 151.701C28.737 151.906 29.3382 152.392 29.5615 153.305C29.6216 153.561 29.5873 153.757 29.4155 153.945C29.1149 154.269 28.8229 154.602 28.5051 154.892C27.0107 156.249 25.3703 157.401 23.6526 158.45C20.1829 160.575 16.5156 162.247 12.4705 162.955C11.4914 163.134 10.5037 163.22 9.52463 163.134C7.59222 162.955 5.89171 162.213 4.38873 161.01C3.37529 160.208 2.54221 159.252 2.14714 158.006C1.83795 157.042 1.64042 156.052 1.6576 155.046C1.67477 154.286 1.7263 153.518 1.82078 152.767C1.9496 151.607 2.26738 150.489 2.6195 149.388C2.64527 149.295 2.67962 149.226 2.7741 149.226C2.48209 149.132 2.21585 148.945 2.01831 148.766C2.1042 148.885 2.07843 148.953 1.97537 149.201C1.00487 151.581 0.455212 154.056 0.41227 156.616C0.386504 158.476 0.79875 160.276 1.64901 161.948C2.1042 162.844 2.72257 163.612 3.50412 164.261C5.29052 165.737 7.3861 166.343 9.66204 166.419C11.2767 166.479 12.8484 166.198 14.3857 165.762C17.3058 164.952 20.0197 163.663 22.5963 162.111C24.6661 160.856 26.6243 159.457 28.3334 157.742C29.321 156.743 30.1283 155.643 30.4461 154.243C30.6351 153.424 30.7553 152.597 30.721 151.795C30.7639 149.764 30.24 147.929 29.1493 146.257ZM25.9028 148.322C25.1385 148.365 24.3741 148.424 23.6097 148.416C23.2833 148.407 22.9484 148.288 22.6478 148.143C22.3128 147.989 22.2871 147.784 22.5018 147.486C22.8453 147.016 23.3263 146.726 23.9017 146.667C25.2759 146.53 26.212 147.281 27.1224 148.237C26.6672 148.279 26.2893 148.305 25.9028 148.322Z" fill="#2A686F"/>
<path d="M78.3354 150.788C78.1808 149.03 77.9833 147.272 77.7858 145.515C77.7686 145.318 77.8029 145.216 77.9489 145.139L75.5356 146.206C75.7675 146.121 75.7932 146.155 75.8276 146.445C75.9049 147.042 75.9908 147.639 76.0595 148.245C76.2312 149.747 76.4116 151.24 76.5576 152.75C76.6778 154.047 76.7809 155.344 76.8496 156.641C76.9012 157.631 76.8668 158.629 76.8754 159.619C76.8754 160.097 76.8582 160.566 76.8582 161.053C76.8582 161.129 76.9269 161.198 76.9699 161.274C77.0472 161.232 77.1416 161.206 77.1846 161.146C77.2619 161.027 77.3134 160.89 77.3649 160.762C77.8888 159.38 78.198 157.947 78.344 156.471C78.5415 154.576 78.49 152.682 78.3354 150.788ZM77.571 143.74C76.5318 136.419 75.5012 129.115 74.462 121.811C74.5136 121.769 74.5565 121.734 74.608 121.7C74.651 121.786 74.6853 121.897 74.754 121.965C75.089 122.357 75.4325 122.75 75.7846 123.134C75.9306 123.296 76.0938 123.441 76.2742 123.569C76.3515 123.629 76.5147 123.663 76.5834 123.62C76.6607 123.577 76.6864 123.424 76.6778 123.321C76.6607 123.142 76.6006 122.972 76.5404 122.801C75.4583 120.079 74.3761 117.357 73.294 114.635C73.251 114.541 73.2167 114.439 73.1652 114.362C73.0535 114.192 72.9505 114.192 72.8388 114.362C72.8044 114.422 72.7873 114.482 72.7615 114.541C72.418 115.523 72.083 116.512 71.7223 117.494C71.645 117.698 71.6536 117.895 71.7996 118.04C72.126 118.39 72.1603 118.833 72.2118 119.26C72.4008 120.864 72.5811 122.46 72.7787 124.064C73.0621 126.248 73.3541 128.432 73.6375 130.625C73.9553 132.98 74.2559 135.327 74.5823 137.682C74.9 140.003 75.2436 142.332 75.5785 144.653C75.6043 144.832 75.5957 144.986 75.4926 145.097L77.571 143.74Z" fill="#2A686F"/>
<path d="M89.1224 134.968C88.9678 134.909 88.9678 134.815 89.0108 134.661C89.3286 133.287 89.277 131.956 88.6157 130.676C87.9802 129.456 86.8637 129.269 85.8932 130.224C84.9399 131.171 84.519 132.349 84.416 133.671C84.3644 134.388 84.6307 134.926 85.1803 135.352C85.584 135.668 86.0564 135.856 86.5373 136.009C86.752 136.078 86.9581 136.171 87.1814 136.248C85.5926 138.151 79.5205 142.887 77.5795 143.74L75.5097 145.088L75.5011 145.097C75.4582 145.139 75.4067 145.182 75.3294 145.207C75.2349 145.25 75.149 145.318 75.0631 145.37C74.084 145.958 73.1135 146.556 72.143 147.153C71.997 147.238 71.8081 147.341 71.9197 147.545C72.0314 147.742 72.2032 147.571 72.3234 147.52C73.3712 147.11 74.419 146.675 75.4582 146.257L75.5355 146.223L77.9488 145.156L77.9574 145.148C77.9746 145.139 78.0004 145.131 78.0175 145.122C78.112 145.079 78.2151 145.037 78.3096 145.003L78.447 144.943C79.2629 144.568 80.0101 144.081 80.7487 143.561C82.3375 142.46 83.9178 141.351 85.2576 139.943C86.1766 138.97 87.0354 137.929 87.9286 136.914C88.1605 136.649 88.2121 136.615 88.4869 136.854C88.7445 137.076 88.9507 137.34 89.1825 137.579C89.2513 137.639 89.3629 137.724 89.4316 137.707C89.5089 137.69 89.5862 137.571 89.6034 137.485C89.6807 137.127 89.7408 136.777 89.8009 136.419C89.8954 135.779 89.7837 135.241 89.1224 134.968ZM88.1519 134.26C87.4563 133.987 86.752 133.74 86.0735 133.432C85.3521 133.117 85.3177 132.844 85.9189 132.272C86.4858 131.726 87.0354 131.769 87.5593 132.357C87.8943 132.724 88.0317 133.185 88.1348 133.646C88.1777 133.842 88.1949 134.047 88.2292 134.235C88.1777 134.252 88.1605 134.26 88.1519 134.26Z" fill="#2A686F"/>
<path d="M164.95 161.965C164.976 160.08 164.89 158.203 164.667 156.325C164.375 153.851 164.091 151.385 163.773 148.919C163.438 146.351 163.061 143.791 162.708 141.223C162.425 139.158 162.167 137.084 161.892 135.011C161.592 132.775 161.283 130.54 160.982 128.304C160.87 127.502 160.776 126.692 160.639 125.89C160.604 125.659 160.501 125.42 160.372 125.224C160.201 124.968 160.149 124.729 160.252 124.431C160.587 123.501 160.905 122.553 161.24 121.623C161.283 121.495 161.412 121.393 161.497 121.274C161.583 121.384 161.695 121.478 161.738 121.598C162.451 123.313 163.155 125.028 163.868 126.743C163.971 126.99 163.971 127.229 163.842 127.451C163.636 127.792 163.43 128.142 163.207 128.467C163.043 128.705 162.975 128.936 163.018 129.226C163.267 130.873 163.516 132.511 163.756 134.158C164.005 135.839 164.263 137.52 164.503 139.209C164.735 140.83 164.967 142.451 165.19 144.073C165.474 146.137 165.749 148.211 165.998 150.284C166.17 151.701 166.316 153.126 166.427 154.551C166.651 157.418 166.573 160.276 165.697 163.049C165.603 163.348 165.5 163.638 165.388 163.928C165.354 164.022 165.311 164.124 165.251 164.201C165.208 164.252 165.122 164.312 165.062 164.295C165.019 164.286 164.976 164.192 164.95 164.124C164.933 164.064 164.941 163.996 164.941 163.928C164.95 163.279 164.95 162.622 164.95 161.965Z" fill="#2A686F"/>
<path d="M65.7533 134.55C65.238 135.122 64.7398 135.677 64.2417 136.231C64.0957 136.393 63.9497 136.564 63.8037 136.726C63.5546 136.991 63.4344 137.008 63.151 136.752C62.2921 136.001 61.4419 135.25 60.583 134.491C60.291 134.226 60.291 134.09 60.5658 133.782C60.9609 133.339 61.356 132.895 61.7511 132.451C61.9314 132.247 62.1118 132.042 62.2921 131.845C62.5584 131.555 62.6786 131.547 62.9706 131.811C63.6147 132.375 64.2503 132.938 64.8944 133.501C65.1263 133.706 65.1349 133.706 65.341 133.475C65.9079 132.844 66.4747 132.204 67.0501 131.564C67.325 131.257 67.4624 131.248 67.763 131.521C68.6218 132.272 69.4721 133.023 70.3223 133.782C70.5886 134.013 70.6058 134.141 70.3739 134.405C69.7641 135.096 69.1543 135.779 68.5359 136.462C68.3126 136.709 68.1924 136.709 67.909 136.462C67.2906 135.924 66.6808 135.387 66.071 134.849C65.9852 134.738 65.8735 134.653 65.7533 134.55Z" fill="#2A686F"/>
<path d="M86.4859 147.742C86.3656 147.665 86.2712 147.622 86.1939 147.554C85.3093 146.777 84.4246 146.001 83.54 145.225C83.3253 145.037 83.3081 144.866 83.4885 144.653C84.1069 143.945 84.7424 143.236 85.378 142.545C85.5583 142.349 85.7129 142.358 85.9534 142.554C86.5975 143.108 87.2331 143.68 87.8772 144.243C88.1434 144.482 88.152 144.482 88.3839 144.218C88.9336 143.603 89.4832 142.981 90.0415 142.366C90.3593 142.008 90.4537 141.999 90.8059 142.315C91.6304 143.04 92.4549 143.766 93.2793 144.499C93.6401 144.824 93.6401 144.9 93.3309 145.259C92.764 145.899 92.1972 146.53 91.6218 147.17C91.3384 147.486 91.2267 147.486 90.9089 147.213C90.282 146.667 89.6636 146.12 89.0452 145.574C88.7618 145.327 88.7618 145.327 88.5213 145.6C87.9631 146.223 87.4048 146.854 86.838 147.477C86.7435 147.562 86.6147 147.639 86.4859 147.742Z" fill="#2A686F"/>
<path d="M117.877 163.51C117.799 163.638 117.756 163.74 117.679 163.826C117.078 164.508 116.477 165.182 115.867 165.856C115.626 166.121 115.489 166.121 115.206 165.873C114.604 165.344 114.003 164.807 113.402 164.278C112.981 163.911 113.084 163.936 112.732 164.329C112.208 164.901 111.702 165.489 111.178 166.07C110.843 166.445 110.748 166.454 110.379 166.129C109.554 165.404 108.73 164.67 107.905 163.945C107.571 163.655 107.562 163.544 107.863 163.211C108.429 162.571 108.996 161.931 109.572 161.3C109.872 160.967 109.967 160.967 110.31 161.266C110.903 161.786 111.495 162.307 112.088 162.836C112.432 163.143 112.432 163.143 112.758 162.785C113.282 162.196 113.806 161.607 114.338 161.018C114.647 160.669 114.75 160.66 115.103 160.976C115.936 161.709 116.777 162.443 117.61 163.186C117.696 163.271 117.774 163.39 117.877 163.51Z" fill="#2A686F"/>
<path d="M26.2292 139.422C26.0832 139.32 25.963 139.252 25.8599 139.158C25.2329 138.612 24.6146 138.066 23.9962 137.511C23.73 137.281 23.73 137.281 23.4981 137.545C22.9484 138.16 22.3987 138.782 21.8405 139.397C21.5227 139.747 21.4197 139.755 21.0761 139.456C20.243 138.723 19.4014 137.989 18.5683 137.247C18.2591 136.973 18.2505 136.846 18.5254 136.538C19.0922 135.898 19.659 135.258 20.2259 134.627C20.5351 134.286 20.6467 134.277 20.9902 134.584C21.6258 135.139 22.2527 135.694 22.8797 136.257C23.0515 136.41 23.1545 136.419 23.3091 136.231C23.8674 135.583 24.4428 134.951 25.0096 134.32C25.3016 133.996 25.4305 133.987 25.7482 134.269C26.5813 135.002 27.423 135.736 28.2561 136.479C28.591 136.777 28.591 136.871 28.299 137.212C27.7322 137.852 27.1653 138.492 26.5899 139.124C26.4954 139.235 26.358 139.32 26.2292 139.422Z" fill="#2A686F"/>
<path d="M97.4533 166.411C97.3245 166.334 97.2128 166.283 97.1269 166.206C96.2509 165.438 95.3749 164.67 94.5074 163.894C94.2584 163.672 94.2498 163.527 94.4817 163.271C95.0743 162.597 95.6669 161.931 96.2681 161.274C96.5257 160.993 96.6288 160.984 96.9208 161.232C97.5649 161.795 98.2091 162.358 98.8446 162.921C99.0937 163.143 99.0937 163.143 99.317 162.896C99.8752 162.273 100.433 161.641 101 161.01C101.301 160.677 101.404 160.66 101.739 160.95C102.589 161.692 103.431 162.443 104.273 163.186C104.565 163.442 104.573 163.57 104.315 163.868C103.731 164.525 103.147 165.182 102.555 165.839C102.297 166.129 102.168 166.129 101.868 165.865C101.224 165.302 100.579 164.739 99.9439 164.167C99.7722 164.005 99.6691 164.013 99.5059 164.192C98.9477 164.841 98.3722 165.472 97.8054 166.104C97.7109 166.223 97.5821 166.309 97.4533 166.411Z" fill="#2A686F"/>
<path d="M154.747 136.189C154.025 135.958 153.519 135.54 153.089 135.028C152.978 134.9 152.883 134.764 152.797 134.619C152.625 134.337 152.591 134.072 152.754 133.748C153.467 132.357 154.455 131.248 155.966 130.702C157.031 130.318 157.701 130.787 157.624 131.922C157.59 132.417 157.401 132.895 157.272 133.381C157.255 133.45 157.203 133.535 157.143 133.561C157.049 133.603 156.92 133.646 156.825 133.612C156.757 133.595 156.705 133.458 156.688 133.373C156.662 133.245 156.696 133.117 156.679 132.989C156.628 132.443 156.258 132.153 155.717 132.247C155.056 132.357 154.524 132.724 154.017 133.134C153.982 133.168 153.974 133.305 154.008 133.347C154.558 134.081 155.245 134.61 156.198 134.764C157.143 134.917 158.062 134.755 158.972 134.567C159.479 134.465 159.986 134.346 160.493 134.26C160.621 134.235 160.759 134.286 160.888 134.294C160.853 134.422 160.836 134.567 160.767 134.678C160.587 134.96 160.407 135.241 160.192 135.497C160.089 135.617 159.934 135.711 159.78 135.762C158.947 136.001 158.096 136.189 157.28 136.462C155.76 136.965 154.317 137.639 152.96 138.484C152.883 138.535 152.737 138.544 152.651 138.501C152.522 138.441 152.565 138.313 152.626 138.202C152.737 137.989 152.84 137.759 152.96 137.545C153.167 137.17 153.441 136.88 153.836 136.692C154.111 136.547 154.395 136.385 154.747 136.189Z" fill="#2A686F"/>
<path d="M67.1103 122.639C67.1704 122.758 67.2047 122.809 67.2305 122.869C67.4624 123.484 67.6943 124.098 67.9262 124.712C68.0722 125.096 68.2439 125.48 68.3384 125.873C68.493 126.538 68.3985 127.212 68.1666 127.852C67.7973 128.876 66.8268 129.328 65.779 128.996C65.1091 128.782 64.7055 128.407 64.2331 127.554C64.173 127.673 64.1386 127.775 64.0871 127.861C63.8724 128.245 63.7006 128.654 63.4258 128.996C62.6528 129.951 61.1928 130.037 60.3855 129.217C60.0334 128.859 59.8702 128.407 59.8444 127.92C59.8186 127.409 59.8616 126.888 59.8616 126.376C59.8616 126.043 59.8788 125.702 59.8444 125.378C59.7843 124.832 60.0849 124.414 60.2996 123.97C60.3082 123.944 60.4628 123.953 60.4714 123.978C60.5143 124.081 60.5573 124.2 60.5573 124.311C60.5487 124.746 60.5229 125.19 60.5143 125.625C60.5143 126.163 60.4714 126.717 60.5658 127.238C60.7204 128.083 61.4247 128.484 62.2578 128.253C62.6013 128.159 62.9363 127.98 63.2283 127.784C63.9153 127.315 63.9841 126.606 63.8552 125.881C63.7693 125.378 63.6147 124.883 63.4602 124.388C63.3914 124.183 63.3657 123.995 63.4258 123.791C63.5289 123.484 63.6233 123.185 63.735 122.852C63.9841 122.972 64.0699 123.168 64.1215 123.347C64.2761 123.893 64.4049 124.439 64.5337 124.994C64.6282 125.412 64.6711 125.839 64.7914 126.24C64.9889 126.905 65.3754 127.426 66.0968 127.596C66.6465 127.733 67.1532 127.605 67.6256 127.323C67.7973 127.221 67.8489 127.084 67.763 126.897C67.5998 126.547 67.4194 126.205 67.2734 125.839C67.0587 125.284 66.8354 124.738 66.6894 124.166C66.5434 123.612 66.8612 123.159 67.1103 122.639Z" fill="#2A686F"/>
<path d="M53.4975 163.74C53.4202 163.894 53.3086 164.09 53.2141 164.278C52.9478 164.807 52.4841 165.071 51.943 165.225C51.359 165.387 50.8694 165.174 50.4572 164.764C50.0535 164.355 49.564 164.116 49.0057 164.124C48.5763 164.124 48.1297 164.21 47.7175 164.346C47.2966 164.491 46.9102 164.747 46.5065 164.96C45.9568 165.251 45.4244 165.566 44.8661 165.839C43.8784 166.317 42.8478 166.565 41.7399 166.437C40.8896 166.334 40.0394 166.266 39.1891 166.181C39.1033 166.172 39.0088 166.146 38.9315 166.112C38.8885 166.087 38.8284 166.01 38.837 165.967C38.8456 165.925 38.9229 165.865 38.9658 165.856C39.1891 165.839 39.4038 165.848 39.6271 165.848C40.7436 165.848 41.8601 165.771 42.9423 165.481C44.2563 165.131 45.4845 164.594 46.6525 163.902C47.3997 163.459 48.1641 163.041 49.0229 162.861C49.7272 162.716 50.3455 162.827 50.878 163.373C51.651 164.15 52.7847 163.937 53.2828 162.955C53.3859 162.759 53.4546 162.554 53.5576 162.358C53.6779 162.128 53.8067 161.906 53.9441 161.684C53.9871 161.616 54.0729 161.582 54.1416 161.53C54.1588 161.624 54.1932 161.71 54.1932 161.803C54.1932 161.863 54.1588 161.923 54.1416 161.991C54.0214 162.452 54.1245 162.776 54.468 163.024C54.8459 163.297 55.2496 163.348 55.6704 163.109C55.8507 163.006 55.9023 162.887 55.8164 162.699C55.7649 162.597 55.7305 162.486 55.6876 162.375C55.6017 162.153 55.5931 161.931 55.6876 161.701C55.7649 161.496 55.8164 161.283 55.8851 161.078C55.9109 161.01 55.971 160.959 56.0139 160.899C56.0655 160.95 56.1513 160.993 56.1685 161.053C56.2458 161.283 56.3489 161.513 56.3746 161.752C56.4605 162.512 56.2716 163.245 56.0397 163.954C55.825 164.611 54.7858 164.867 54.176 164.431C53.9183 164.244 53.7208 163.979 53.4975 163.74Z" fill="#2A686F"/>
<path d="M144.132 160.208C144.097 160.319 144.089 160.37 144.072 160.413C144.046 160.472 144.02 160.532 143.986 160.583C143.273 161.948 143.281 161.957 141.839 162.503C138.369 163.826 134.89 165.14 131.412 166.445C131.275 166.496 131.12 166.496 130.974 166.522C131 166.377 131.008 166.223 131.06 166.087C131.12 165.908 131.215 165.728 131.3 165.558C131.584 164.995 132.005 164.619 132.623 164.389C136.316 163.015 139.992 161.607 143.668 160.216C143.762 160.182 143.857 160.131 143.96 160.114C144.011 160.122 144.072 160.182 144.132 160.208Z" fill="#2A686F"/>
<path d="M71.7481 160.762C71.7395 160.796 71.7223 160.856 71.6965 160.916C71.6536 161.01 71.602 161.104 71.5505 161.189C70.872 162.435 70.872 162.435 69.5408 162.938C66.6465 164.03 63.7436 165.122 60.8493 166.215C60.6861 166.274 60.5058 166.3 60.334 166.334C60.3683 166.155 60.3855 165.959 60.4456 165.797C60.5401 165.558 60.6689 165.327 60.7978 165.105C61.0382 164.687 61.3818 164.406 61.8456 164.235C64.9546 163.075 68.055 161.897 71.164 160.728C71.3015 160.677 71.4303 160.634 71.5677 160.583C71.7051 160.54 71.7566 160.6 71.7481 160.762Z" fill="#2A686F"/>
<path d="M9.14673 123.526C9.22402 121.436 9.65345 119.431 10.2718 117.451C10.5466 116.581 10.8558 115.719 11.165 114.857C11.2337 114.669 11.3454 114.482 11.4742 114.337C11.5429 114.26 11.7147 114.234 11.8092 114.268C11.8779 114.294 11.9294 114.465 11.9208 114.558C11.895 114.746 11.8263 114.934 11.7576 115.113C11.1564 116.598 10.6927 118.125 10.3835 119.695C10.1 121.12 9.97981 122.554 10.3405 123.987C10.4522 124.439 10.6068 124.883 10.8988 125.25C11.019 125.403 11.1564 125.548 11.3024 125.659C11.7061 125.967 12.1269 125.924 12.4962 125.574C12.7968 125.284 12.9257 124.908 13.0373 124.516C13.0717 124.397 13.0974 124.26 13.1575 124.149C13.1833 124.098 13.2778 124.038 13.3379 124.047C13.3894 124.055 13.4581 124.141 13.4667 124.2C13.4839 124.311 13.4839 124.431 13.4667 124.55C13.3808 125.275 13.2177 125.975 12.8913 126.624C12.6852 127.05 12.4018 127.417 12.0153 127.69C11.4141 128.117 10.8644 128.083 10.3319 127.571C9.79086 127.042 9.51603 126.376 9.39579 125.651C9.27556 124.96 9.22402 124.243 9.14673 123.526Z" fill="#2A686F"/>
<path d="M159.591 126.709C159.548 126.794 159.531 126.854 159.496 126.905C159.204 127.409 158.929 127.92 158.612 128.407C158.517 128.552 158.328 128.663 158.157 128.731C156.877 129.183 155.58 129.593 154.309 130.079C152.918 130.608 151.552 131.206 150.169 131.76C150.049 131.811 149.903 131.82 149.774 131.845C149.809 131.717 149.817 131.572 149.877 131.462C150.118 130.992 150.367 130.523 150.616 130.054C150.719 129.849 150.873 129.712 151.088 129.618C153.733 128.441 156.465 127.511 159.221 126.658C159.299 126.632 159.376 126.615 159.445 126.615C159.496 126.624 159.539 126.675 159.591 126.709Z" fill="#2A686F"/>
<path d="M15.2617 155.711C15.2789 154.389 15.5451 153.271 15.9059 152.179C16.1979 151.3 16.55 150.438 16.8849 149.576C16.9451 149.423 17.0309 149.26 17.1426 149.15C17.2285 149.064 17.3917 149.013 17.5033 149.039C17.5634 149.047 17.6321 149.252 17.615 149.363C17.5806 149.559 17.5033 149.755 17.4174 149.943C16.9966 150.89 16.6101 151.846 16.4126 152.861C16.215 153.842 16.1979 154.815 16.6359 155.737C16.7647 156.01 16.9708 156.266 17.2027 156.462C17.6064 156.803 18.1474 156.752 18.4738 156.325C18.6713 156.069 18.783 155.737 18.9204 155.438C18.9805 155.302 18.9977 155.139 19.0578 154.994C19.0836 154.935 19.1866 154.875 19.2639 154.866C19.3069 154.866 19.3756 154.96 19.3928 155.028C19.4185 155.114 19.4185 155.208 19.4014 155.293C19.2897 156.035 19.1437 156.769 18.8002 157.443C18.5597 157.921 18.2333 158.339 17.7524 158.612C17.2371 158.902 16.8076 158.868 16.3525 158.484C15.7598 157.981 15.4764 157.307 15.339 156.573C15.2961 156.249 15.2789 155.899 15.2617 155.711Z" fill="#2A686F"/>
<path d="M135.629 137.887C135.586 136.683 135.904 135.54 136.273 134.414C136.548 133.586 136.883 132.775 137.209 131.956C137.269 131.803 137.355 131.641 137.467 131.53C137.553 131.444 137.725 131.385 137.836 131.41C137.999 131.444 137.999 131.632 137.965 131.769C137.922 131.931 137.853 132.084 137.785 132.238C137.321 133.279 136.891 134.328 136.703 135.455C136.539 136.385 136.565 137.306 136.995 138.177C137.115 138.424 137.312 138.654 137.518 138.834C137.939 139.192 138.489 139.141 138.815 138.689C139.021 138.407 139.133 138.049 139.279 137.724C139.331 137.605 139.339 137.477 139.399 137.357C139.425 137.306 139.528 137.247 139.58 137.255C139.631 137.264 139.691 137.349 139.708 137.409C139.734 137.494 139.726 137.588 139.717 137.682C139.623 138.484 139.442 139.252 139.064 139.968C138.858 140.361 138.566 140.694 138.188 140.941C137.613 141.317 137.098 141.274 136.599 140.796C135.973 140.207 135.715 139.448 135.629 138.62C135.612 138.381 135.629 138.134 135.629 137.887Z" fill="#2A686F"/>
<path d="M90.8658 162.844C90.7628 163.629 90.591 164.457 90.1444 165.208C89.9297 165.566 89.6549 165.873 89.2942 166.095C88.7788 166.42 88.2893 166.385 87.8255 166.001C87.2673 165.532 86.9753 164.901 86.8464 164.201C86.6317 163.075 86.7606 161.966 87.0354 160.873C87.3532 159.585 87.8169 158.339 88.3408 157.119C88.4095 156.965 88.4954 156.82 88.5899 156.684C88.6844 156.556 88.8218 156.453 88.9936 156.547C89.1567 156.641 89.1396 156.812 89.0966 156.957C89.0537 157.102 88.9936 157.247 88.9248 157.392C88.4611 158.433 88.0402 159.483 87.8427 160.609C87.6881 161.53 87.7225 162.426 88.1175 163.297C88.2549 163.604 88.4525 163.843 88.7359 164.03C89.1224 164.286 89.5346 164.244 89.8782 163.937C90.1959 163.646 90.3334 163.254 90.4364 162.853C90.4622 162.742 90.4794 162.623 90.5395 162.52C90.5738 162.452 90.6769 162.426 90.7456 162.384C90.7885 162.452 90.8401 162.52 90.8744 162.597C90.8744 162.648 90.8658 162.716 90.8658 162.844Z" fill="#2A686F"/>
<path d="M129.969 152.588C129.969 151.633 130.167 150.813 130.459 150.028C130.751 149.235 131.103 148.45 131.446 147.673C131.524 147.503 131.661 147.349 131.799 147.23C131.859 147.179 132.03 147.187 132.116 147.23C132.176 147.264 132.219 147.417 132.194 147.494C132.159 147.656 132.082 147.81 132.005 147.955C131.584 148.783 131.18 149.627 131.026 150.557C130.897 151.325 130.923 152.085 131.335 152.776C131.481 153.023 131.696 153.254 131.936 153.416C132.443 153.774 133.061 153.638 133.379 153.109C133.525 152.87 133.585 152.58 133.705 152.332C133.748 152.247 133.86 152.196 133.946 152.127C133.997 152.221 134.109 152.315 134.1 152.4C133.971 153.382 133.765 154.346 132.924 155.011C132.237 155.558 131.558 155.54 130.931 154.935C130.665 154.679 130.45 154.354 130.278 154.03C130.021 153.552 129.986 153.015 129.969 152.588Z" fill="#2A686F"/>
<path d="M21.6944 122.374C21.0588 122.383 20.6981 122.093 20.3804 121.743C19.719 120.992 19.5559 120.088 19.6332 119.14C19.7792 117.511 20.4233 116.026 21.1361 114.576C21.1963 114.456 21.2907 114.32 21.4024 114.251C21.4969 114.2 21.66 114.192 21.7545 114.243C21.8146 114.277 21.8404 114.448 21.8146 114.541C21.7717 114.704 21.6858 114.849 21.6171 115.002C21.2048 115.821 20.8184 116.649 20.6638 117.562C20.5435 118.304 20.5521 119.038 20.9386 119.704C21.0846 119.96 21.3079 120.207 21.5484 120.386C22.0809 120.77 22.7164 120.625 23.0428 120.062C23.1716 119.84 23.2317 119.584 23.3262 119.345C23.3691 119.226 23.4121 119.055 23.5753 119.115C23.6526 119.149 23.7384 119.32 23.7299 119.422C23.6354 120.241 23.455 121.026 22.9054 121.675C22.5618 122.084 22.1324 122.366 21.6944 122.374Z" fill="#2A686F"/>
<path d="M159.247 163.075C159.239 162.494 159.47 161.633 159.78 160.797C160.054 160.063 160.381 159.346 160.699 158.629C160.767 158.467 160.879 158.314 161.008 158.194C161.085 158.126 161.274 158.1 161.351 158.151C161.429 158.194 161.463 158.373 161.446 158.476C161.42 158.621 161.326 158.757 161.257 158.902C160.896 159.628 160.544 160.361 160.355 161.155C160.149 162.017 160.132 162.87 160.578 163.672C160.724 163.928 160.948 164.175 161.197 164.346C161.703 164.696 162.279 164.576 162.622 164.064C162.751 163.877 162.82 163.646 162.914 163.433C162.957 163.339 162.966 163.228 163.017 163.143C163.052 163.092 163.146 163.032 163.198 163.041C163.258 163.049 163.318 163.126 163.344 163.194C163.37 163.279 163.361 163.373 163.352 163.459C163.267 164.09 163.121 164.704 162.786 165.251C162.665 165.447 162.511 165.634 162.348 165.788C161.575 166.513 160.707 166.462 160.003 165.677C159.488 165.105 159.23 164.346 159.247 163.075Z" fill="#2A686F"/>
<path d="M60.9351 118.509C60.9522 117.852 61.1068 117.187 61.3817 116.555C61.6737 115.881 62 115.224 62.3264 114.567C62.3951 114.422 62.5239 114.285 62.6528 114.2C62.7386 114.149 62.9104 114.166 63.0049 114.226C63.0564 114.26 63.065 114.439 63.0306 114.533C62.9791 114.686 62.8846 114.832 62.7988 114.977C62.3779 115.719 61.9743 116.478 61.9141 117.349C61.8626 118.193 62.1031 118.936 62.8675 119.414C63.5889 119.866 64.3275 119.601 64.6195 118.808C64.6625 118.697 64.6882 118.586 64.7483 118.483C64.7827 118.432 64.8772 118.39 64.9373 118.398C64.9974 118.407 65.0403 118.492 65.0833 118.552C65.0919 118.56 65.0919 118.577 65.0919 118.586C65.2465 119.55 64.3533 120.847 63.3828 121.086C62.9705 121.188 62.584 121.12 62.2233 120.907C61.3215 120.369 60.9608 119.55 60.9351 118.509Z" fill="#2A686F"/>
<path d="M91.8965 118.56C91.9222 117.75 92.1112 117.024 92.4118 116.333C92.678 115.719 92.9872 115.122 93.2878 114.524C93.3479 114.405 93.451 114.268 93.5626 114.209C93.6743 114.149 93.8375 114.149 93.9577 114.192C94.0092 114.217 94.0178 114.422 93.9921 114.524C93.9577 114.661 93.8547 114.772 93.7945 114.9C93.5283 115.471 93.2277 116.035 93.0216 116.623C92.8069 117.229 92.8069 117.869 93.0731 118.475C93.2535 118.893 93.5197 119.226 93.932 119.439C94.6276 119.789 95.2975 119.541 95.5723 118.816C95.6153 118.697 95.6411 118.569 95.7098 118.458C95.7441 118.407 95.8386 118.355 95.8987 118.364C95.9588 118.372 96.0018 118.458 96.0447 118.518C96.0619 118.535 96.0533 118.569 96.0533 118.594C96.1564 119.644 95.3061 120.83 94.3098 121.06C93.9663 121.137 93.6399 121.103 93.3308 120.941C92.5664 120.548 92.1112 119.917 91.9652 119.072C91.9223 118.893 91.9051 118.697 91.8965 118.56Z" fill="#2A686F"/>
<path d="M160.63 142.861C160.587 143.108 160.518 143.578 160.432 144.047C160.415 144.158 160.355 144.269 160.304 144.371C160.286 144.405 160.226 144.448 160.183 144.448C160.149 144.448 160.106 144.388 160.098 144.346C160.072 144.209 160.055 144.064 160.037 143.928C159.866 142.4 159.496 140.933 158.612 139.644C158.44 139.388 158.242 139.141 158.028 138.919C157.856 138.74 157.796 138.544 157.856 138.322C157.925 138.074 158.002 137.827 158.105 137.596C158.208 137.383 158.294 137.375 158.449 137.554C159.728 139.013 160.587 140.651 160.63 142.861Z" fill="#2A686F"/>
<path d="M150.298 152.068C150.307 151.138 150.513 150.293 150.813 149.482C151.097 148.714 151.44 147.955 151.767 147.204C151.835 147.051 151.93 146.897 152.05 146.803C152.145 146.735 152.316 146.709 152.428 146.743C152.488 146.76 152.523 146.965 152.497 147.076C152.454 147.247 152.359 147.409 152.282 147.571C151.896 148.347 151.543 149.132 151.372 149.986C151.208 150.796 151.243 151.581 151.664 152.307C151.801 152.545 152.007 152.759 152.23 152.921C152.754 153.296 153.364 153.177 153.708 152.622C153.854 152.383 153.914 152.093 154.034 151.846C154.077 151.76 154.189 151.709 154.275 151.65C154.326 151.743 154.429 151.846 154.421 151.931C154.309 152.861 154.111 153.766 153.364 154.431C152.608 155.105 151.887 155.08 151.166 154.38C150.513 153.723 150.332 152.895 150.298 152.068Z" fill="#2A686F"/>
<path d="M7.07689 143.356C6.90512 144.695 6.63887 146.001 6.01192 147.213C5.71132 147.793 5.31625 148.305 4.80094 148.714C4.29422 149.124 3.74456 149.405 3.09184 149.312H3.07466C3.00595 149.303 2.93725 149.286 2.86854 149.269C2.83419 149.26 2.79983 149.252 2.77407 149.26C2.48206 149.167 2.21582 148.979 2.01828 148.8C2.00969 148.791 2.00111 148.783 2.00111 148.783C1.96675 148.74 1.91522 148.689 1.84651 148.62C1.78639 148.561 1.72627 148.493 1.66616 148.433C1.64898 148.407 1.64039 148.39 1.64039 148.39C1.06496 147.733 0.712836 146.965 0.489536 146.129C0.0515245 144.474 -0.068714 142.784 0.0343475 141.069C0.266236 136.982 1.30544 133.091 2.68818 129.26C2.91148 128.671 3.10043 128.065 3.33232 127.477C3.42679 127.238 3.56421 127.016 3.72739 126.82C3.89057 126.624 4.1654 126.564 4.31999 126.666C4.51752 126.786 4.51752 126.999 4.48317 127.187C4.44023 127.417 4.38011 127.639 4.28564 127.852C3.25502 130.378 2.48206 132.989 1.91522 135.651C1.67474 136.786 1.59745 137.946 1.52874 139.107C1.43427 140.557 1.62321 141.965 2.03546 143.347C2.23299 143.996 2.53359 144.593 2.98019 145.105C3.28937 145.446 3.63291 145.754 4.09669 145.83C4.71506 145.933 5.22178 145.694 5.60826 145.225C6.01192 144.738 6.21804 144.149 6.36404 143.544C6.40699 143.373 6.44134 143.185 6.52722 143.032C6.57875 142.938 6.72476 142.827 6.81923 142.844C6.90512 142.861 6.991 142.998 7.05112 143.108C7.09406 143.168 7.08547 143.271 7.07689 143.356Z" fill="#2A686F"/>
<path d="M30.4547 165.814C30.2744 165.916 30.094 166.027 29.9051 166.104C29.656 166.206 29.3984 166.308 29.1321 166.343C28.6082 166.411 28.4021 166.249 28.2647 165.737C28.0328 165.797 27.7923 165.865 27.5604 165.899C26.7789 166.027 26.1863 165.413 26.3495 164.653C26.4955 163.988 26.8733 163.45 27.3028 162.947C27.3543 162.887 27.5089 162.836 27.569 162.87C28.1702 163.203 28.488 163.45 27.9469 164.116C27.8267 164.022 27.7064 163.928 27.5776 163.834C27.3199 163.646 27.2856 163.646 27.0795 163.911C27.0022 164.013 26.9335 164.124 26.8562 164.227C26.547 164.687 26.7102 164.866 27.2426 165.054C27.3801 165.105 27.5604 165.088 27.7064 165.054C28.3334 164.892 28.8916 164.628 29.3468 164.141C29.51 163.962 29.5014 163.834 29.3468 163.68C29.3039 163.638 29.2523 163.587 29.2094 163.544C28.9432 163.296 28.8916 163.049 29.0205 162.725C29.0806 162.58 29.1665 162.614 29.2695 162.674C29.7419 162.964 29.8879 163.399 29.8621 163.928C29.845 164.372 29.6388 164.713 29.3211 165.003C29.1665 165.14 29.0119 165.267 28.8487 165.404C29.364 165.583 30.24 165.344 30.5234 164.943C30.5664 164.884 30.5664 164.798 30.5836 164.73C30.7038 163.919 31.0559 163.237 31.6657 162.691C31.8632 162.511 32.0951 162.401 32.37 162.418C32.6963 162.435 32.808 162.605 32.6963 162.904C32.6534 163.015 32.6104 163.117 32.5589 163.22C32.5074 163.322 32.4387 163.407 32.3184 163.314C32.1123 163.16 31.9234 163.245 31.743 163.348C31.4682 163.501 31.2363 163.698 31.1075 164.03C31.2792 164.005 31.4252 163.971 31.5712 163.962C31.8031 163.953 31.8804 164.047 31.8461 164.269C31.8031 164.585 31.7087 164.866 31.4252 165.063C31.2792 165.165 31.1504 165.285 31.0216 165.438C31.8804 165.643 32.5761 165.216 33.3061 164.909C33.2803 164.841 33.2803 164.815 33.2632 164.798C33.0227 164.482 32.7908 164.167 32.9883 163.74C33.2374 163.203 33.5294 162.708 34.1735 162.546C34.4655 162.477 34.8005 162.639 34.9293 162.895C35.0066 163.058 34.7919 163.621 34.6115 163.663C34.56 163.68 34.4827 163.663 34.4312 163.638C34.3539 163.604 34.2852 163.535 34.1993 163.493C34.0361 163.416 33.7012 163.467 33.6239 163.604C33.5036 163.808 33.7098 163.902 33.8214 164.005C34.1392 164.32 34.4741 164.372 34.8778 164.158C35.2127 163.979 35.5305 163.783 35.8569 163.604C35.917 163.57 35.9943 163.561 36.0716 163.535C36.0716 163.621 36.0974 163.706 36.0802 163.783C35.9943 164.15 35.7968 164.423 35.436 164.602C34.4999 165.063 33.5809 165.583 32.6362 166.027C32.2325 166.215 31.7774 166.317 31.3308 166.368C30.7983 166.462 30.6351 166.317 30.4547 165.814Z" fill="#2A686F"/>
<path d="M30.6609 162.426C30.6695 162.29 30.6781 162.162 30.6952 162.025C30.7983 161.462 31.0044 160.933 31.348 160.472C31.5369 160.216 31.8289 160.122 32.0694 160.225C32.3356 160.344 32.5246 160.549 32.5332 160.839C32.5418 161.155 32.4043 161.428 32.181 161.701C32.1123 161.581 32.0694 161.513 32.0265 161.436C31.9234 161.266 31.8117 161.095 31.5884 161.104C31.3651 161.112 31.2535 161.283 31.1676 161.462C31.0731 161.675 30.9958 161.889 30.9185 162.11C30.8756 162.221 30.8327 162.341 30.7897 162.452C30.7468 162.443 30.7038 162.435 30.6609 162.426Z" fill="#2A686F"/>
<path d="M9.63637 184.585V186.923L0.0344674 186.932L0.0258789 173.194L9.44742 173.186V175.524L2.71407 175.532V178.843L8.53704 178.834V181.002L2.71407 181.01V184.585H9.63637Z" fill="#A88950"/>
<path d="M22.459 175.515H18.036L18.0446 186.906H15.3735L15.365 175.515H10.9419V173.177L22.4504 173.169L22.459 175.515Z" fill="#A88950"/>
<path d="M24.5718 186.906L24.5632 173.169H27.2514L27.26 186.906H24.5718Z" fill="#A88950"/>
<path d="M38.7599 176.761C38.6654 176.667 38.5022 176.548 38.2618 176.394C38.0213 176.24 37.7293 176.095 37.3857 175.95C37.0422 175.805 36.6643 175.686 36.2692 175.575C35.8656 175.464 35.4619 175.413 35.0411 175.413C34.3111 175.413 33.77 175.549 33.4007 175.822C33.0314 176.095 32.8424 176.471 32.8424 176.957C32.8424 177.333 32.9627 177.623 33.1946 177.845C33.4265 178.066 33.7786 178.246 34.2424 178.399C34.7061 178.553 35.2902 178.715 35.9944 178.894C36.9048 179.107 37.6949 179.38 38.3648 179.688C39.0347 180.003 39.55 180.413 39.9022 180.916C40.2629 181.42 40.4346 182.094 40.4432 182.93C40.4432 183.664 40.3058 184.287 40.0396 184.807C39.7647 185.328 39.3954 185.746 38.9145 186.07C38.4335 186.394 37.8925 186.625 37.2827 186.778C36.6729 186.923 36.0202 187 35.3331 187C34.646 187 33.9589 186.932 33.2719 186.787C32.5848 186.642 31.9235 186.445 31.2879 186.181C30.6524 185.916 30.0684 185.601 29.5359 185.225L30.7211 182.921C30.8413 183.041 31.0475 183.186 31.3481 183.374C31.6487 183.561 32.0094 183.749 32.4388 183.937C32.8682 184.125 33.332 184.278 33.8387 184.406C34.3454 184.534 34.8607 184.602 35.376 184.602C36.1061 184.602 36.6557 184.483 37.0336 184.235C37.4115 183.997 37.6005 183.647 37.6005 183.203C37.6005 182.793 37.4544 182.469 37.1539 182.239C36.8533 182.008 36.441 181.804 35.9085 181.633C35.376 181.462 34.7491 181.275 34.0191 181.07C33.1516 180.831 32.4216 180.558 31.8376 180.251C31.2536 179.952 30.8156 179.568 30.5322 179.107C30.2487 178.647 30.1027 178.066 30.1027 177.375C30.1027 176.437 30.326 175.652 30.7726 175.012C31.2192 174.372 31.829 173.894 32.5934 173.561C33.3578 173.237 34.208 173.066 35.1442 173.066C35.7969 173.066 36.4067 173.135 36.9821 173.28C37.5575 173.425 38.0986 173.604 38.6053 173.843C39.112 174.073 39.5672 174.329 39.9709 174.594L38.7599 176.761Z" fill="#A88950"/>
<path d="M46.2919 173.152H49.0145L54.1074 186.881H51.3419L50.1911 183.459L45.1153 183.468L43.9645 186.889H41.199L46.2919 173.152ZM49.5641 181.59L47.6575 175.925L45.7509 181.599L49.5641 181.59Z" fill="#A88950"/>
<path d="M61.3989 186.974C60.3855 186.974 59.4665 186.778 58.642 186.386C57.8175 185.993 57.1133 185.464 56.5207 184.807C55.9281 184.15 55.4729 183.408 55.1465 182.572C54.8202 181.744 54.657 180.882 54.657 180.012C54.657 179.099 54.8288 178.22 55.1723 177.392C55.5158 176.556 55.9882 175.822 56.5894 175.165C57.1906 174.517 57.9034 173.996 58.7279 173.612C59.5524 173.228 60.4542 173.041 61.4419 173.041C62.4381 173.041 63.3571 173.237 64.1816 173.638C65.0061 174.039 65.7103 174.568 66.2943 175.242C66.8784 175.916 67.3336 176.659 67.6599 177.486C67.9863 178.314 68.1495 179.159 68.1495 180.037C68.1495 180.942 67.9863 181.804 67.6427 182.64C67.3078 183.476 66.8354 184.218 66.2342 184.867C65.633 185.515 64.9202 186.036 64.0957 186.411C63.2712 186.787 62.3694 186.974 61.3989 186.974ZM61.4161 184.611C62.0688 184.611 62.6443 184.474 63.151 184.21C63.6577 183.945 64.0785 183.587 64.4135 183.143C64.7484 182.7 65.0061 182.205 65.1778 181.65C65.3496 181.104 65.4441 180.549 65.4355 179.995C65.4355 179.398 65.341 178.826 65.1521 178.271C64.9631 177.717 64.6969 177.23 64.3534 176.804C64.0098 176.377 63.589 176.036 63.0909 175.78C62.5927 175.524 62.0259 175.396 61.4075 175.396C60.7462 175.396 60.1622 175.532 59.6641 175.797C59.1659 176.061 58.7451 176.42 58.4101 176.863C58.0752 177.307 57.8175 177.802 57.6458 178.348C57.474 178.886 57.3795 179.44 57.3881 180.012C57.3881 180.609 57.4826 181.181 57.6629 181.735C57.8433 182.29 58.1095 182.776 58.4531 183.203C58.7966 183.63 59.2175 183.971 59.7156 184.227C60.2051 184.483 60.7806 184.611 61.4161 184.611ZM61.1413 181.787H63.6749L68.2353 186.872H65.7017L61.1413 181.787Z" fill="#A88950"/>
<path d="M78.7907 173.126H81.5133L86.6062 186.855H83.8407L82.6899 183.433L77.6141 183.442L76.4632 186.864H73.6978L78.7907 173.126ZM82.0629 181.556L80.1563 175.891L78.2496 181.565L82.0629 181.556Z" fill="#A88950"/>
<path d="M87.1472 179.867C87.1472 179.031 87.3018 178.203 87.6024 177.401C87.903 176.599 88.3496 175.856 88.9336 175.191C89.5176 174.525 90.2305 173.996 91.0721 173.604C91.9138 173.211 92.8757 173.015 93.9493 173.015C95.2204 173.015 96.3197 173.288 97.2472 173.843C98.1748 174.397 98.8705 175.114 99.3257 176.01L97.2644 177.426C97.0325 176.915 96.7233 176.505 96.3455 176.198C95.9676 175.899 95.5639 175.686 95.1345 175.558C94.7051 175.438 94.2842 175.379 93.872 175.379C93.1935 175.379 92.6095 175.515 92.1113 175.788C91.6132 176.061 91.1924 176.411 90.8574 176.855C90.5225 177.29 90.2734 177.785 90.1102 178.322C89.9471 178.86 89.8698 179.406 89.8698 179.944C89.8698 180.549 89.9642 181.13 90.1618 181.693C90.3593 182.256 90.6341 182.751 90.9863 183.186C91.347 183.621 91.7764 183.962 92.2745 184.21C92.7727 184.457 93.3223 184.585 93.9235 184.585C94.3529 184.585 94.7909 184.517 95.229 184.372C95.667 184.227 96.0792 184.005 96.4571 183.698C96.835 183.391 97.127 182.99 97.3331 182.495L99.5318 183.749C99.2569 184.432 98.8189 185.012 98.2006 185.49C97.5822 185.968 96.8951 186.326 96.1307 186.573C95.3664 186.821 94.602 186.94 93.8548 186.94C92.8671 186.94 91.9653 186.736 91.1494 186.334C90.3335 185.925 89.6293 185.387 89.0367 184.713C88.4441 184.039 87.9803 183.28 87.6539 182.435C87.319 181.59 87.1472 180.737 87.1472 179.867Z" fill="#A88950"/>
<path d="M105.295 173.1H108.017L113.11 186.829H110.345L109.194 183.408L104.118 183.416L102.967 186.838H100.202L105.295 173.1ZM108.567 181.531L106.66 175.865L104.754 181.539L108.567 181.531Z" fill="#A88950"/>
<path d="M115.017 186.829L115.008 173.092L120.033 173.083C121.536 173.083 122.798 173.391 123.811 173.996C124.825 174.602 125.581 175.43 126.096 176.471C126.603 177.512 126.86 178.655 126.86 179.926C126.86 181.317 126.586 182.529 126.027 183.561C125.469 184.594 124.679 185.396 123.665 185.959C122.643 186.531 121.441 186.812 120.058 186.812L115.017 186.829ZM124.146 179.935C124.146 179.048 123.983 178.263 123.657 177.589C123.331 176.915 122.867 176.385 122.257 176.002C121.647 175.618 120.909 175.43 120.033 175.43H117.696L117.705 184.483H120.041C120.926 184.483 121.673 184.287 122.283 183.894C122.893 183.502 123.356 182.956 123.674 182.264C123.992 181.573 124.146 180.797 124.146 179.935Z" fill="#A88950"/>
<path d="M138.953 184.466V186.804L129.351 186.812L129.342 173.075L138.764 173.066V175.404L132.03 175.413V178.723L137.853 178.715V180.882L132.03 180.891V184.466H138.953Z" fill="#A88950"/>
<path d="M152.72 186.795L152.711 177.776L149.173 184.491H147.67L144.123 177.785L144.132 186.804H141.443L141.435 173.066H144.321L148.417 180.882L152.54 173.066H155.4L155.408 186.804L152.72 186.795Z" fill="#A88950"/>
<path d="M160.218 173.049L163.628 179.508L167.089 173.041H169.992L164.976 181.983L164.985 186.778H162.314L162.305 181.94L157.289 173.049H160.218Z" fill="#A88950"/>
<path d="M125.503 94.157L84.1842 94.1911V91.5204L118.564 91.4863C119.191 91.4863 119.697 90.8805 119.697 90.1381C119.697 89.3958 119.191 88.79 118.555 88.79L84.1756 88.8241V86.6142L118.555 86.58C119.182 86.58 119.689 85.9742 119.689 85.2319C119.689 84.4896 119.182 83.8838 118.547 83.8838L84.167 83.9179V81.7079L118.547 81.6738C119.174 81.6738 119.68 81.068 119.68 80.3257C119.68 79.5833 119.174 78.9775 118.538 78.9775L84.1584 79.0116V76.8017L118.289 76.7676C119.053 76.7676 119.68 76.1618 119.68 75.4194C119.68 74.6771 119.053 74.0713 118.289 74.0713L55.7821 74.131C55.0178 74.131 54.3908 74.7368 54.3908 75.4792C54.3908 76.2215 55.0178 76.8273 55.7821 76.8273L61.4076 76.7932V79.0031L53.6093 79.0116C52.8964 79.0116 52.3296 79.6175 52.3296 80.3598C52.3296 81.1021 52.905 81.7079 53.6179 81.7079L61.4162 81.6994V83.9093L53.6179 83.9179C52.905 83.9179 52.3382 84.5237 52.3382 85.266C52.3382 86.0084 52.9136 86.6142 53.6264 86.6142L61.4248 86.6056V88.8156L55.7049 88.8241C54.992 88.8241 54.4252 89.4299 54.4252 90.1723C54.4252 90.9146 55.0006 91.5204 55.7134 91.5204L61.4334 91.5119V94.1826H57.663C54.5969 94.1826 51.7198 93.0051 49.5469 90.8549C47.374 88.7047 46.1802 85.8377 46.1802 82.8001C46.1717 76.5201 51.3161 71.4006 57.6373 71.4006L124.799 71.3409C125.804 71.3409 126.611 70.5303 126.611 69.5405C126.611 68.5507 125.795 67.7401 124.799 67.7401L57.6373 67.7998C49.315 67.8084 42.5473 74.5406 42.5559 82.8087C42.5559 86.8104 44.1362 90.5733 46.9876 93.4146C49.8389 96.2475 53.635 97.8004 57.663 97.8004H58.9341H61.4248L61.4334 107.442C61.4334 107.929 61.691 108.372 62.1204 108.611C62.3266 108.731 62.5584 108.79 62.7989 108.79C63.0394 108.79 63.2799 108.731 63.4946 108.603L72.8217 103.116L82.1573 108.594C82.5781 108.842 83.102 108.842 83.5229 108.603C83.9437 108.364 84.21 107.911 84.21 107.434L84.2014 97.7919L125.52 97.7577C126.525 97.7577 127.333 96.9471 127.333 95.9574C127.324 94.959 126.508 94.157 125.503 94.157ZM81.4874 105.07L73.5087 100.394C73.0793 100.147 72.5554 100.147 72.126 100.394L64.1559 105.087L64.1473 97.8175V94.2167V91.546V88.8497V86.6398V83.9435V81.7335V79.0372V76.8273L81.4788 76.8102V79.0202V81.7165V83.9264V86.6227V88.8326V91.5289V94.1996V97.8004L81.4874 105.07Z" fill="#2A686F"/>
<path d="M118.246 65.0694L109.348 65.078C109.494 54.2245 109.718 41.3659 109.099 36.4C107.811 26.0073 94.98 22.1079 86.9755 14.676C78.9883 22.125 66.1657 26.05 64.8946 36.4426C64.2848 41.4086 64.5425 54.2757 64.7056 65.1206L55.8252 65.1292C55.6878 49.9156 55.4129 35.4785 56.9846 29.9835C60.2225 21.1437 66.2172 18.2341 72.169 14.5907C76.2228 12.1077 84.7941 5.51205 86.9755 0C88.9165 5.39259 97.754 12.0907 101.808 14.5651C107.76 18.2 113.763 21.1011 117.018 29.9323C118.598 35.4273 118.358 49.8559 118.246 65.0694Z" fill="#2A686F"/>
<path d="M101.739 65.0866L95.7271 65.0951C95.7787 60.8629 95.856 42.7653 95.6155 40.837C95.1088 36.7925 90.1103 35.2652 86.9927 32.3727C83.8836 35.2737 78.8852 36.8096 78.3956 40.854C78.1551 42.7909 78.2668 60.8971 78.3269 65.1122L72.315 65.1207C72.2463 57.9448 72.1175 40.3933 72.8561 37.8079C74.3762 33.644 77.2104 32.2703 80.0103 30.5552C81.9169 29.3948 86.0823 26.0756 86.9841 23.9169C87.8945 26.0756 92.0599 29.3777 93.9751 30.5382C96.7835 32.2532 99.6091 33.6184 101.146 37.7823C101.894 40.3591 101.791 57.9192 101.739 65.0866Z" fill="#A88950"/>
</g>
<defs>
<clipPath id="clip0_101_1310">
<rect width="170" height="187" fill="white"/>
</clipPath>
</defs>
</svg>
