<svg width="40" height="40" viewBox="0 0 40 40" fill="none" xmlns="http://www.w3.org/2000/svg">
<g clip-path="url(#clip0_93_636)">
<path d="M20 40C8.95238 40 0 31.0476 0 20C0 8.95238 8.95238 0 20 0C31.0476 0 40 8.95238 40 20C40 31.0476 31.0476 40 20 40Z" fill="#2A686F"/>
<path d="M25.4171 26.6156C25.4171 25.8281 25.4171 25.0724 25.4171 24.253C23.5197 24.3062 21.7198 24.6095 20.0861 25.5035C19.937 25.5833 19.8453 25.8653 19.8396 26.0569C19.8224 27.4776 19.8281 28.9037 19.8281 30.3618C19.6218 30.3618 19.4441 30.3618 19.2148 30.3618C19.2148 28.941 19.2033 27.5415 19.2262 26.1367C19.232 25.7589 19.1288 25.5354 18.7447 25.3545C17.1454 24.6148 15.4544 24.2955 13.643 24.2583C13.643 25.0565 13.643 25.8068 13.643 26.6103C13.8379 26.6103 14.0328 26.605 14.222 26.6103C15.0245 26.6316 15.6321 27.0998 15.7811 27.8182C15.9302 28.5312 15.5805 29.2656 14.8411 29.4891C13.6889 29.835 12.5138 30.1383 11.3329 30.3564C10.3871 30.532 9.768 30.0531 9.65908 29.1113C9.40113 26.8657 9.96863 24.8436 11.7342 23.21C13.0641 21.9808 14.692 21.2199 16.4748 20.741C16.6696 20.6878 16.9505 20.7356 17.1282 20.8314C18.739 21.7094 20.3326 21.7147 21.9319 20.8208C22.0694 20.741 22.2758 20.6611 22.4134 20.6984C25.0904 21.4221 27.4692 22.5661 28.8049 24.982C29.487 26.2165 29.745 27.5734 29.5214 28.9676C29.338 30.101 28.6845 30.5693 27.4807 30.3458C26.4718 30.1595 25.4744 29.8828 24.4885 29.6008C23.5369 29.3294 23.107 28.627 23.2847 27.7597C23.4395 27.0253 24.1216 26.5784 25.0674 26.605C25.1649 26.6156 25.2623 26.6156 25.4171 26.6156Z" fill="white"/>
<path d="M24.7579 15.4835C24.7694 18.3996 22.3332 20.6984 19.3237 20.6132C16.8933 20.544 14.8411 18.7987 14.3596 16.3828C13.8322 13.7435 15.7181 11.0297 18.4467 10.5029C21.7428 9.86965 24.7465 12.2376 24.7579 15.4835Z" fill="white"/>
</g>
<defs>
<clipPath id="clip0_93_636">
<rect width="40" height="40" fill="white"/>
</clipPath>
</defs>
</svg>
